<svg xmlns="http://www.w3.org/2000/svg" width="300" height="63" fill="none"><mask id="a" width="300" height="63" x="0" y="0" maskUnits="userSpaceOnUse" style="mask-type:luminance"><path fill="#fff" fill-rule="evenodd" d="M.728.251h298.934v62H.728v-62Z" clip-rule="evenodd"/></mask><g mask="url(#a)"><path fill="#ADB1B7" fill-rule="evenodd" d="M291.644 19.34h-.548v3.812h2.269v-.492h-1.721v-3.32Zm-2.867.816.615 1.38h-1.185l.57-1.38Zm.201-.838h-.386l-1.637 3.834h.559l.48-1.123h1.621l.509 1.123h.559l-1.705-3.834Zm-1.559.023h-3.185v.492h1.319v3.319h.547v-3.32h1.319v-.491Zm-4.627.815.615 1.38h-1.185l.57-1.38Zm.201-.838h-.386l-1.638 3.834h.56l.48-1.123h1.621l.508 1.123h.56l-1.705-3.834Zm-1.56.023h-3.185v.492h1.319v3.319h.548v-3.32h1.318v-.491Zm-3.61.217a1.526 1.526 0 0 0-.85-.267c-.698 0-1.156.396-1.156 1.016 0 1.045 1.648 1.135 1.648 1.923 0 .212-.195.481-.62.481-.375 0-.727-.196-1.006-.554v.694c.319.24.654.352 1.067.352.615 0 1.068-.436 1.068-1.034 0-1.213-1.648-1.202-1.648-1.934 0-.268.251-.453.603-.453.257 0 .57.09.894.397v-.62Zm-2.442-.217h-2.163v3.81h2.213v-.49h-1.666v-1.186h1.56v-.491h-1.56v-1.151h1.616v-.492Zm-7.919 1.905c0-.838.632-1.453 1.481-1.453.855 0 1.486.615 1.486 1.453 0 .833-.631 1.453-1.486 1.453-.849 0-1.481-.62-1.481-1.453Zm-.564 0c0 1.034.787 1.957 2.034 1.957 1.291 0 2.061-.928 2.061-1.957 0-1.061-.793-1.955-2.05-1.955-1.235 0-2.045.9-2.045 1.955Zm-.465-1.905h-2.162v3.81h2.213v-.49h-1.666v-1.186h1.56v-.491h-1.56v-1.151h1.615v-.492Zm-4.358 0h-.549v3.81h2.27v-.49h-1.721v-3.32Zm-2.873.492h.642c.498 0 .648.302.648.58 0 .381-.262.599-.67.599h-.62v-1.18Zm-.548-.492v3.81h.548v-1.647h.569c.884 0 1.286-.47 1.286-1.068 0-.603-.38-1.095-1.213-1.095h-1.19Zm-.793 0h-.509l-1.268 1.565-1.263-1.565h-.515v3.81h.548v-2.966h.011l1.174 1.475h.089l1.174-1.476h.011v2.968h.548V19.34Zm-4.175 0h-2.163v3.81h2.213v-.49h-1.665v-1.186h1.559v-.491h-1.559v-1.151h1.615v-.492Zm-4.348 0h-2.163v3.81h2.213v-.49h-1.665v-1.186h1.559v-.491h-1.559v-1.151h1.615v-.492Zm-5.801.492h.844c1.067 0 1.553.648 1.553 1.413 0 .47-.285 1.414-1.525 1.414h-.872v-2.827Zm-.548 3.319h1.487c1.257 0 2.023-.927 2.023-1.906 0-.899-.62-1.905-2.028-1.905h-1.482v3.81Zm46.569-8.753c0-.904.68-1.566 1.596-1.566.922 0 1.602.662 1.602 1.566 0 .897-.68 1.566-1.602 1.566-.916 0-1.596-.67-1.596-1.566Zm-.609 0c0 1.114.85 2.108 2.193 2.108 1.392 0 2.223-1 2.223-2.108 0-1.145-.855-2.109-2.211-2.109-1.332 0-2.205.97-2.205 2.109Zm-.585-1.771c-.559-.235-.987-.338-1.409-.338-1.307 0-2.253.916-2.253 2.17 0 .86.675 2.047 2.217 2.047.645 0 1.084-.15 1.488-.362v-.644c-.463.301-.97.464-1.433.464-.988 0-1.664-.639-1.664-1.56 0-.903.7-1.572 1.639-1.572.476 0 .91.132 1.415.427v-.632Zm-5 3.825h.591v-4.108h-.591v4.108Zm-2.372-4.108h-.591v4.107h2.446v-.529h-1.855v-3.578Zm-3.387 2.289h.711c.621 0 .91.264.91.638 0 .308-.187.651-.88.651h-.741v-1.29Zm0-1.76h.543c.541 0 .717.266.717.573 0 .44-.284.657-.869.657h-.391v-1.23Zm-.591 3.579h1.411c1.03 0 1.41-.59 1.41-1.097 0-.554-.374-.957-.989-1.072v-.011c.428-.175.627-.452.627-.88 0-.518-.38-1.048-1.265-1.048h-1.194v4.107Zm-2.511-5.265-.404.885h.332l.674-.885h-.602Zm1.699 1.157h-.591v2.391c0 .385-.048.687-.259.897-.186.187-.512.332-.963.332a1.2 1.2 0 0 1-.886-.35c-.187-.186-.247-.379-.247-.843v-2.427h-.591v2.553c0 1.121.844 1.609 1.712 1.609 1.222 0 1.825-.663 1.825-1.669v-2.493Zm-5.964.53h.692c.537 0 .699.325.699.627 0 .41-.283.644-.723.644h-.668v-1.271Zm-.59-.53v4.107h.59v-1.776h.614c.952 0 1.386-.506 1.386-1.15 0-.651-.409-1.181-1.308-1.181h-1.282Zm-6.176 2.054c0-.904.681-1.566 1.597-1.566.922 0 1.602.662 1.602 1.566 0 .897-.68 1.566-1.602 1.566-.916 0-1.597-.67-1.597-1.566Zm-.608 0c0 1.114.849 2.108 2.192 2.108 1.392 0 2.224-1 2.224-2.108 0-1.145-.855-2.109-2.211-2.109-1.331 0-2.205.97-2.205 2.109Zm-1.32 2.054h.591v-4.108h-.591v4.108Zm-.771-3.825c-.561-.235-.988-.338-1.41-.338-1.307 0-2.252.916-2.252 2.17 0 .86.674 2.047 2.216 2.047.645 0 1.085-.15 1.488-.362v-.644c-.463.301-.97.464-1.434.464-.988 0-1.662-.639-1.662-1.56 0-.903.698-1.572 1.638-1.572.476 0 .91.132 1.416.427v-.632Zm-5 3.825h.59v-4.108h-.59v4.108Zm-.458-4.108h-.584l-1.229 2.885-1.235-2.885h-.59l1.777 4.144h.12l1.741-4.144Zm-5.741.506h.38c.572 0 .801.234.807.62.006.344-.174.669-.807.669h-.38v-1.29Zm-.59-.506v4.107h.59V14.67h.247c.301 0 .548.096 1.091.94l.541.843h.706c-.284-.391-.386-.53-.561-.813-.313-.512-.542-.892-.916-1.14.44-.173.687-.529.687-1.005 0-.71-.518-1.15-1.349-1.15h-1.036Zm-.693 0h-2.331v4.107h2.385v-.529h-1.795v-1.277h1.681v-.53h-1.681v-1.241h1.741v-.53Zm-3.138.235a1.645 1.645 0 0 0-.917-.29c-.753 0-1.247.428-1.247 1.097 0 1.126 1.777 1.222 1.777 2.072 0 .23-.21.518-.668.518-.404 0-.783-.21-1.085-.596v.747c.344.259.705.379 1.151.379.663 0 1.151-.47 1.151-1.114 0-1.307-1.778-1.295-1.778-2.084 0-.29.271-.489.651-.489.278 0 .615.097.965.428v-.668Zm-2.164 16.293h50.376v-.74h-50.376v.74Zm41.532 18.854v-5.212h7.795V40.5h-7.795v-4.666h8.635V33.82h-10.86v15.923h11.069v-2.016h-8.844Zm-8.24-6.81a3.47 3.47 0 0 0 1.197-.422c.306-.185.535-.44.698-.778.17-.35.255-.815.255-1.382 0-.842-.26-1.45-.798-1.857-.564-.427-1.476-.644-2.712-.644h-3.299v5.212h2.879c.688 0 1.287-.044 1.78-.13Zm4.375-2.476c0 .88-.181 1.636-.537 2.248a3.914 3.914 0 0 1-1.46 1.448 6.468 6.468 0 0 1-1.97.716c-.7.139-1.451.208-2.23.208h-2.837v6.682h-2.225V33.82h5.923c.992 0 1.84.117 2.523.347.703.237 1.27.575 1.682 1.004.413.43.71.932.882 1.493.165.54.249 1.138.249 1.777Zm-21.806 9.286v-5.212h7.793V40.5h-7.793v-4.666h8.634V33.82h-10.86v15.923h11.07v-2.016h-8.844Zm-4.524-4.517a3.659 3.659 0 0 0-1.271-1.376 6.683 6.683 0 0 0-1.587-.738 24.727 24.727 0 0 0-2.093-.524 29.246 29.246 0 0 1-1.554-.372 5.534 5.534 0 0 1-1.077-.422 2.699 2.699 0 0 1-.799-.613c-.197-.225-.321-.504-.38-.86a2.024 2.024 0 0 1-.036-.368c0-.687.267-1.26.814-1.753.552-.496 1.403-.749 2.528-.749.955 0 1.764.252 2.404.746.616.479.917 1.184.917 2.154v.399h2.161v-.399c0-1.408-.486-2.593-1.444-3.52-.956-.925-2.314-1.395-4.038-1.395-1.702 0-3.059.433-4.033 1.286-.99.867-1.492 1.932-1.492 3.167 0 .807.158 1.504.469 2.071a3.673 3.673 0 0 0 1.25 1.354c.489.31 1.015.559 1.561.736.525.17 1.214.357 2.047.554.691.167 1.263.316 1.702.447.415.122.802.29 1.15.497.324.192.576.436.767.748.184.299.277.675.277 1.115 0 .788-.274 1.424-.838 1.946-.565.522-1.443.786-2.608.786-1.151 0-2.087-.269-2.784-.8-.673-.514-1.067-1.366-1.168-2.533l-.031-.364h-2.151v.398c0 1.7.557 3.027 1.656 3.95 1.077.905 2.498 1.364 4.226 1.364 1.822 0 3.272-.421 4.313-1.253 1.068-.854 1.61-2.05 1.61-3.558 0-.833-.157-1.546-.468-2.121Zm-17.428 16.175h62.559V3.117h-62.559v56.268Zm-.206.202h62.97V2.915h-62.97v56.672ZM46.179 31.03c-.057-.014-.136-.016-.182.013-.356.23-.706.469-1.059.705l-.426.288c.23.174.23.174.426.018.058-.047.115-.098.18-.136.035-.02.095-.037.125-.02.18.094.353.199.521.297l-.067.548.455.258c.047-.615.09-1.204.14-1.792.01-.103-.03-.158-.113-.179Zm-2.177.066c.077-.017.14-.029.201-.045.208-.053.329-.189.34-.378.01-.18-.085-.332-.29-.396-.314-.099-.635-.176-.966-.266l-.386 1.675.448.106.178-.747c.035.073.06.118.078.166.078.2.152.402.234.6.018.045.055.101.094.113.152.044.309.073.485.112l-.416-.94Zm-1.175-1.207-1.505-.132v.239h.52l-.126 1.513.458.035.135-1.502.518.072v-.225Zm-1.637 1.345h-.642v-1.478c-.11-.005-.221-.004-.33-.017-.095-.012-.127.021-.127.112 0 .248-.008.495-.009.742-.002.278 0 .555 0 .849h1.108v-.207Zm-1.62-1.49c-.316.036-.267-.027-.343.267-.087.336-.18.67-.281 1.042-.055-.08-.089-.127-.12-.175-.173-.278-.343-.559-.523-.832a.213.213 0 0 0-.159-.084c-.137.008-.273.042-.41.065.001.012-.001.025.003.032.324.482.644.966.977 1.441.033.048.147.059.221.053.042-.003.1-.069.115-.117.134-.425.259-.853.387-1.279.041-.136.087-.27.133-.413Zm-3.046 6.288v-.152h-8.259l-.142 1.15h.427c.313 0 .318-.002.401.301.029.103.073.141.178.134.123-.007.248-.006.372 0 .09.005.14-.026.188-.109a.681.681 0 0 1 1.201-.002c.047.083.095.12.186.11.06-.005.119 0 .178 0 .346 0 .343-.002.454-.326.016-.045.08-.102.123-.104.334-.008.669-.007 1.003 0 .038 0 .094.04.111.075.055.113.063.284.148.335.1.06.261.018.396.02.054 0 .108-.006.162 0 .104.014.159-.028.212-.121a.644.644 0 0 1 .68-.338.645.645 0 0 1 .57.48c.082.275.043.565-.203.71-.245.146-.238.33-.232.549.003.107 0 .215 0 .323 0 .309-.002.314.299.4.102.03.135.077.131.18-.008.21 0 .421-.003.631-.001.14.04.311-.027.408-.06.087-.24.092-.366.134-.009.003-.016.013-.035.029 0 .286.004.582-.003.877-.002.099.028.149.116.2.462.262.479.918.026 1.185-.111.066-.155.131-.14.25.007.048.002.098.002.146 0 .339-.002.343.31.453.095.033.122.079.115.175-.018.252-.026.506-.038.758-.014.297-.013.303-.307.367-.11.024-.16.065-.184.182a5.204 5.204 0 0 1-.185.633c-.033.095-.032.16.027.25.284.43.01 1.038-.498 1.046-.252.004-.394.103-.533.27a.482.482 0 0 1-.117.11c-.222.13-.268.31-.172.54.043.103-.002.168-.096.218-.242.129-.484.257-.72.396-.147.087-.258.07-.354-.069-.097-.14-.214-.181-.382-.105-.12.055-.258.076-.39.099-.104.017-.164.056-.211.16-.223.49-.911.566-1.18.11-.124-.212-.272-.27-.475-.3-.058-.01-.121-.015-.171-.043-.225-.124-.393-.056-.53.14-.056.08-.123.088-.208.042-.219-.116-.445-.218-.659-.342-.276-.16-.279-.168-.2-.476.03-.118.002-.186-.088-.262a3.637 3.637 0 0 1-.38-.372.277.277 0 0 0-.263-.104c-.508.042-.91-.471-.686-.923.115-.232.087-.404.006-.607-.02-.05-.043-.102-.046-.154-.014-.325-.18-.49-.504-.5-.007 0-.014-.014-.024-.025-.02-.346-.04-.695-.062-1.044-.005-.073 0-.125.09-.16.342-.128.34-.133.34-.5 0-.059.013-.121-.003-.177-.014-.053-.046-.118-.09-.144a.718.718 0 0 1-.344-.41c-.114-.357.038-.664.44-.883 0-.2.002-.405 0-.61 0-.416 0-.416-.403-.536-.01-.003-.016-.013-.035-.03v-.288l-1.277.256c-.002.02-.008.062-.008.104 0 1.282-.01 2.565.003 3.847.012 1.2.326 2.328 1.015 3.313 1.507 2.153 3.584 3.087 6.189 2.692 2.927-.444 5.126-3.047 5.132-6.005.007-2.856.002-5.711.002-8.567Zm-4.81 14.7c-1.758.316-3.395.045-4.881-.959-1.48-.999-2.366-2.4-2.72-4.151-.351 1.745-1.226 3.149-2.7 4.15-1.477 1.003-3.109 1.273-4.854.951.03.023.057.038.087.05 1.083.439 2.195.784 3.338 1.03l.383.082c1.17.226 2.58.375 3.618.375 1.325 0 2.857-.155 4.098-.416l.007.005a20.028 20.028 0 0 0 3.46-1.046c.055-.022.109-.048.163-.072ZM15.79 35.876h-1.38v12.621c0 .334-.003.668.004 1.001.002.059.034.146.079.17.405.218.817.426 1.228.635.02.01.048.006.07.007V35.877Zm1.415 14.804h1.364V35.879h-1.364V50.68Zm-.51-21.37c-.008-.165-.157-.289-.311-.293a.309.309 0 0 0-.316.285c-.013.265-.004.532-.004.801h.635c0-.27.009-.531-.004-.792Zm1.808 3.23c-.019-.31-.297-.536-.604-.545-.31-.009-.591.197-.617.519-.032.399-.008.802-.008 1.211h1.235c0-.403.018-.795-.006-1.185Zm1.212-3.213a.316.316 0 0 0-.294-.31c-.144-.01-.308.093-.317.241-.018.282-.005.564-.005.846h.619c0-.271.005-.524-.003-.777Zm.264 6.375.327-1.88h-5.984v-1.967h.982V28.14c-.103 0-.194-.006-.285.002-.118.01-.166-.029-.159-.153.01-.172.002-.345.002-.517v-1.147h.766v-1.087l-.31-.015v-.955h.363l.022.243h.243l.018-.24h.453l.016.238h.232l.016-.24h.39v.965h-.329v1.083h.592v-2.448c-.088 0-.167-.004-.247 0-.12.009-.178-.03-.169-.164.01-.161.003-.323.003-.485v-.445h.373l.021.212h.32l.011-.206h.547l.013.21h.28l.023-.212h.388v1.09h-.459v2.45h.579v-1.093h-.314v-.958h.365l.018.244h.245l.023-.243h.455l.012.238h.24l.017-.24h.376v.966h-.306v1.103h.808c0 .575.002 1.135-.006 1.695 0 .037-.073.099-.117.104-.12.015-.244.005-.364.005v3.719h.979l.038.164c.066-.061.116-.11.168-.156.629-.561 1.353-.912 2.2-.976.15-.011.185-.053.185-.197-.004-3.076-.003-6.152-.003-9.228V21.3H11.743v14.402h8.236Zm-6.972.178h-1.27c-.003.053-.007.095-.007.138 0 2.87-.006 5.742.003 8.613a5.916 5.916 0 0 0 .814 2.968c.133.23.287.447.432.67l.028-.017V35.881ZM21.38 21.13c.893-.023 1.788-.005 2.682-.005.748 0 1.497-.01 2.246.002.965.016 1.928.002 2.876-.201.844-.181 1.684-.384 2.525-.583.181-.043.234-.139.226-.32-.007-.158-.107-.224-.244-.256-.731-.173-1.458-.368-2.194-.515-1.518-.302-3.058-.418-4.603-.451-1.768-.038-3.53.036-5.283.287-1.065.152-2.119.353-3.148.675-.155.048-.26.116-.261.293-.001.178.101.257.26.295.752.178 1.499.38 2.256.533.876.178 1.762.27 2.662.246Zm-4.603-2.383c-.212-.03-.38-.059-.551-.073-.055-.005-.13.015-.166.052-.074.074-.128.169-.2.27.077.034.13.06.185.08.069.027.165.09.205.065.176-.111.337-.248.527-.394Zm-.471-.169c.236.003.471.062.734.1-.219.17-.418.322-.613.48-.03.024-.06.076-.055.111.014.127.043.252.061.351 5.096-1.272 10.194-1.268 15.293.005.007-.064 0-.161.031-.244.05-.132.003-.204-.102-.278-.182-.129-.355-.27-.557-.426.209-.029.382-.054.556-.075.247-.031.508-.029.666-.308-2.7-.754-5.457-1.014-8.246-1.015-2.788 0-5.545.259-8.261 1.018.153.156.274.279.493.281Zm-.701-.326c.237-.067.474-.139.713-.2 1.804-.47 3.642-.705 5.499-.816a37.243 37.243 0 0 1 6.243.144c1.52.164 3.023.43 4.49.875.154.047.255.004.289-.113.041-.142-.015-.252-.163-.301-.122-.041-.246-.075-.37-.112-1.699-.5-3.442-.756-5.202-.895-1.008-.079-2.02-.104-2.87-.146-.669.024-1.175.031-1.68.063-.88.056-1.762.104-2.639.197-.741.08-1.482.191-2.214.34-.746.15-1.481.36-2.22.549-.159.04-.232.175-.187.305.04.116.151.155.31.11Zm.696-1.113-.273.422.848-.218-.575-.204Zm2.446-.704-.576.643c-.006-.001.008.005.021.003l1.29-.199-.735-.447Zm2.654-.128-.536.43 1.12-.077-.584-.353Zm2.673-.267-.675.555h1.353l-.678-.555Zm2.675.269-.585.351 1.132.08-.547-.431Zm2.643.11c-.105.077-.22.175-.347.252-.127.077-.265.134-.42.211l.704.102.658.102-.595-.667Zm2.459.721-.58.206.858.22-.278-.426Zm-15.733.1c.047-.083.085-.17.133-.27.441.28.913.35 1.408.196.495-.154.844-.475 1.047-.977.361.428.806.648 1.35.631.548-.016.988-.26 1.33-.682.848.804 2.106.591 2.692-.335.305.476.721.76 1.266.822.541.062 1.018-.101 1.41-.487.79.955 2.046.843 2.693.064.204.482.549.81 1.044.964.495.154.966.08 1.41-.192.027.052.047.09.065.128.263.563.65.726 1.234.53.574-.19.95-.607 1.275-1.075l-.116-.283c-.156.142-.309.285-.465.423-.26.23-.54.426-.88.523-.354.1-.65-.035-.782-.376-.048-.124-.067-.258-.101-.394-.12-.075-.201-.021-.302.077-.347.338-.77.43-1.223.28-.448-.147-.736-.465-.807-.939-.032-.207-.006-.423-.006-.632l-.372-.072-.026.18c-.122.734-.757 1.196-1.486 1.065-.505-.09-.841-.385-.992-.881-.037-.12-.125-.166-.187-.097-.024.028-.035.067-.052.1a1.274 1.274 0 0 1-1.32.673 1.254 1.254 0 0 1-1.061-1.085c-.018-.136-.003-.276-.003-.411h-.435c.007.08.02.16.02.24-.004.576-.414 1.1-.96 1.23a1.28 1.28 0 0 1-1.456-.662c-.025-.046-.085-.074-.128-.11-.033.041-.083.078-.097.125-.27.905-1.417 1.209-2.1.556a1.325 1.325 0 0 1-.403-.923l-.407.079c.003.025.006.057.013.087.132.589-.098 1.122-.604 1.402-.47.261-1.059.155-1.478-.26-.037-.035-.107-.052-.16-.05-.084.002-.097.066-.107.144-.077.599-.47.835-1.02.588-.246-.11-.47-.277-.688-.44-.178-.132-.333-.297-.49-.439l-.118.275s.002.01.008.019c.034.048.068.097.103.144.322.43.704.78 1.232.946.47.148.855.008 1.1-.42Zm-2.453-.984c-.023-.224-.272-.451-.496-.454-.161-.002-.263.112-.24.27.029.218.274.43.495.43.166 0 .258-.093.241-.246Zm-.789-.492.41-.095c.15-.612.042-1.126-.39-1.302l-.08.3c-.303-.322-.596-.413-.894-.292a.643.643 0 0 0-.415.613c.655-.08 1.104.222 1.37.776Zm-.81-1.62.593-1.028-.107-.114a2.064 2.064 0 0 1-.092-2.743c.291-.357.666-.608 1.08-.802.85-.4 1.752-.538 2.685-.503.197.007.394.025.578.038l.02-.322c-.023-.006-.043-.014-.064-.016-.826-.088-1.645-.05-2.449.167-.775.21-1.485.545-2.038 1.147-.537.586-.719 1.28-.584 2.061.075.435.276.81.554 1.148l-.44.758.264.21Zm-.28-.405c.086-.144.168-.288.256-.428.054-.087.052-.15-.015-.24a2.364 2.364 0 0 1-.486-1.6c.02-.31.109-.614.158-.876-.692.929-.583 2.35.087 3.144Zm4.993-4.637a6.546 6.546 0 0 0-1.817.03c-.74.126-1.438.362-2.04.828-.483.374-.776.857-.824 1.473-.03.39.05.755.247 1.103.171-.104.328-.206.49-.298.891-.508 1.832-.881 2.86-.982.335-.033.677-.018 1.015-.005.165.006.186-.116.217-.208.026-.079-.008-.168-.114-.217-.267-.123-.292-.398-.06-.576.113-.088.118-.204.004-.298a.322.322 0 0 1-.114-.347.294.294 0 0 1 .275-.236c.127-.01.16-.074.178-.182-.069-.022-.129-.044-.19-.061a.789.789 0 0 0-.127-.024Zm.125-.242c.004.125.102.211.236.206a.211.211 0 0 0 .207-.218.222.222 0 0 0-.236-.21.221.221 0 0 0-.207.222Zm.052 1.047c.115-.001.22-.102.22-.213a.222.222 0 0 0-.23-.222.223.223 0 0 0-.207.225c.002.124.091.21.217.21Zm.163-.52c.225.255.197.523-.058.605-.119.038-.142.09-.115.2.163.04.286.13.3.31.014.172-.091.278-.244.35l.049.127c.173-.029.319-.008.402.15.09.175.023.32-.112.448l.096.13c.359-.114.53.025.513.43.051-.095.102-.166.128-.246.015-.043.006-.119-.023-.148-.79-.778-.978-2.13-.363-3.079.006-.008 0-.022-.004-.079-.204.288-.384.543-.57.803Zm.399 1.202c.12.47.377.863.74 1.197l-.253.479.247.203c.153-.264.3-.517.449-.77-.036-.032-.059-.055-.084-.074-1.073-.796-1.191-2.509.058-3.364.993-.68 2.086-.796 3.227-.527.381.09.74.27 1.105.408.058-.36.11-.286-.264-.468a4.154 4.154 0 0 0-1.731-.4c-.905-.02-1.75.18-2.501.705-.892.624-1.257 1.583-.993 2.61Zm5.533-1.113c-.03.636-.086 1.265-.266 1.879-.01.035-.012.093.01.114.249.257.503.508.763.768.106-.27.096-.329-.082-.513-.1-.105-.21-.202-.305-.312-.031-.035-.052-.107-.04-.15.232-.737.244-1.502.287-2.264.022-.376.044-.752.08-1.126a.523.523 0 0 1 .545-.488c.282-.001.492.182.523.484.04.4.07.803.092 1.206.034.633.024 1.277.212 1.886.096.312.045.508-.203.695-.171.13-.262.3-.104.523.223-.221.441-.443.666-.657.068-.066.067-.122.05-.212-.085-.43-.183-.863-.225-1.3-.067-.694-.095-1.393-.138-2.09-.022-.356-.167-.641-.5-.781-.135-.057-.305-.033-.459-.04a.745.745 0 0 0-.782.674 39.005 39.005 0 0 0-.124 1.704Zm.269-2.3c-.005-.118-.119-.223-.236-.21-.129.016-.2.093-.201.224-.002.117.115.222.231.214a.228.228 0 0 0 .206-.227Zm.785-.18c.375-.02.652-.202.856-.54h-1.833c.239.376.554.561.977.54Zm-.93-.654c.58.006 1.162.006 1.744.001.041 0 .111-.038.119-.07.032-.132.045-.269.068-.426h-.792V4.01h.596c0-.136-.005-.253.001-.37.006-.101-.035-.132-.131-.128-.154.006-.309.001-.479.001v-.577h-.49v.584h-.596v.497h.592v1.833h-.813c.018.142.023.27.053.391.011.043.083.1.127.1Zm-.126-.617h.642v-.733c-.273.017-.68.488-.642.733Zm1.377.001h.642a1.05 1.05 0 0 0-.642-.75v.75Zm.551 1.678a.23.23 0 0 0 .222-.212c.004-.114-.106-.23-.221-.226-.132.005-.207.079-.219.208-.01.117.1.23.218.23Zm.081.782c.021-.007.042-.01.059-.02.72-.447 1.512-.6 2.348-.554.69.037 1.33.231 1.906.624 1.14.778 1.126 2.132.528 2.935-.146.195-.334.36-.511.548l.432.744c.266-.142.272-.16.15-.388-.03-.057-.053-.119-.091-.17-.066-.089-.036-.145.035-.216 1.084-1.09.955-2.8-.312-3.676-1.338-.924-2.777-.956-4.252-.346-.335.138-.33.152-.292.52Zm5.289.4c.028.059.035.078.046.095.55.85.47 2.143-.299 2.983-.158.173-.15.23.024.408.009-.358.141-.453.53-.373l.085-.125c-.123-.119-.2-.243-.128-.41.067-.153.189-.208.352-.198.032.002.086-.028.093-.053.007-.029-.021-.074-.045-.102-.038-.043-.097-.07-.126-.118-.126-.204-.029-.396.258-.506.002-.098.002-.16-.119-.192a.307.307 0 0 1-.15-.496c.073-.084.07-.147.015-.224-.135-.191-.27-.381-.41-.57-.025-.035-.063-.06-.126-.12Zm.391.257c-.005.13.072.217.197.223.13.006.231-.084.233-.209a.225.225 0 0 0-.211-.22.21.21 0 0 0-.219.206Zm.604.836c-.005-.107-.116-.21-.225-.207a.223.223 0 0 0-.215.215.216.216 0 0 0 .224.22.218.218 0 0 0 .216-.228Zm-.373-.513c.03.144.084.197.203.206.14.011.233.109.267.246.034.133-.017.243-.118.33-.112.099-.108.213.013.308.22.173.188.448-.062.575-.043.022-.091.058-.108.1-.073.174.048.327.253.311 1.008-.079 1.957.158 2.864.569.488.22.953.493 1.437.746.476-.78.317-1.842-.412-2.46a4.1 4.1 0 0 0-.876-.565c-.901-.43-1.866-.526-2.85-.458-.205.014-.407.06-.61.092Zm.283-.5.015.281c.56.018 1.116.005 1.664.06.769.075 1.493.313 2.136.757.588.406.967.94 1.014 1.676.039.614-.161 1.14-.58 1.59-.032.036-.058.12-.039.156.174.32.36.633.55.962l.26-.217c-.125-.215-.241-.427-.371-.63-.06-.093-.05-.152.017-.238.63-.81.689-1.928.146-2.763-.295-.454-.705-.784-1.176-1.036-1.038-.555-2.154-.711-3.314-.632-.111.007-.221.023-.322.034Zm5.082 1.887c.362.952.25 1.83-.366 2.638l.332.568c.775-1.09.657-2.404.034-3.206Zm-1 4.117-.073-.299c-.437.148-.553.716-.392 1.298l.406.095c.266-.553.71-.85 1.37-.775a.606.606 0 0 0-.365-.586c-.373-.166-.684-.05-.945.267Zm1.16-.495a.222.222 0 0 0 .211.22.231.231 0 0 0 .228-.224.228.228 0 0 0-.232-.217.217.217 0 0 0-.207.221Zm-1.977 1.77c.028-.067.121-.104.174-.163.026-.029.054-.092.04-.116-.084-.141-.154-.309-.277-.406-.224-.176-.482-.31-.75-.477v.342c-.32-.03-.626-.016-.93.105.159.27.383.442.658.558l.026.063-.323.216.037.051c.294.02.587.049.882.056.185.004.372-.01.463-.23Zm-3.362-5.2a.233.233 0 0 0 .219-.215c.004-.116-.11-.23-.225-.227a.238.238 0 0 0-.216.218.218.218 0 0 0 .222.224Zm-.268.326a.219.219 0 0 0-.206.222c.005.11.111.211.222.211.12 0 .224-.106.22-.227-.003-.125-.105-.214-.236-.206Zm-.44 1.13a.235.235 0 0 0 .216-.217.231.231 0 0 0-.227-.223.234.234 0 0 0-.214.22c0 .125.099.222.224.22Zm-.706 2.918a.477.477 0 0 0 .479-.481.485.485 0 1 0-.968.013c.005.267.22.472.49.468Zm-.438-.896c-.259-.297-.601-.411-.97-.542l.072.36c-.32-.048-.606.034-.883.21.199.274.455.425.75.505l-.18.318c.394-.012.76.002 1.099-.19a.654.654 0 0 1 .112-.661Zm1.52-.966-.034-.052c-.147.05-.294.1-.435.15.002-.514-.043-.709-.22-.937a1.316 1.316 0 0 0-.528.805 447 447 0 0 1-.353-.292l-.052.037.19 1.18c.333-.169.59-.109.845.153l.586-1.044Zm.26 1.986c.335.041.616-.027.878-.21a1.298 1.298 0 0 0-.743-.504l.17-.307c-.443-.02-.878.023-1.1.195.07.226.04.44-.123.63.265.306.621.427.995.56l-.076-.364Zm-5.975-6.32h-.01l.044.773c.013.284.012.284.289.312.074.008.15.019.224.028.797.096 1.586.234 2.33.549.537.227 1.09.392 1.66.506.121.024.193.003.261-.111.461-.776.436-1.935-.573-2.64a3.523 3.523 0 0 0-1.774-.616c-.836-.066-1.628.076-2.356.514-.093.056-.136.12-.123.233.018.15.02.3.028.451Zm-1.037 5.689c.26 0 .482-.219.486-.48a.494.494 0 0 0-.493-.49.477.477 0 0 0-.477.482.471.471 0 0 0 .484.488Zm-.596-.492c0-.114.05-.227.078-.34-.355-.308-.791-.385-1.254-.45.03.081.048.137.069.192.023.06.048.118.078.192-.378.019-.678.162-.961.434.165.101.302.207.456.274.154.067.324.095.495.141l-.141.371c.471-.082.914-.152 1.255-.456-.03-.13-.076-.245-.075-.358Zm2.215-.41.14-.366c-.473.033-.984.168-1.26.455.122.265.122.332.002.673.355.314.802.378 1.263.463l-.143-.398c.374-.011.673-.158.937-.41a1.46 1.46 0 0 0-.94-.418Zm-2.06-1.169-.458-.228-.043.047c.186.435.223.928.529 1.33.274-.214.547-.209.82-.002.307-.399.34-.896.532-1.33l-.035-.047-.474.232a1.519 1.519 0 0 0-.434-.991c-.295.287-.403.643-.438.99Zm.067-.694.366-.47.344.434c.092-.21.048-.405-.112-.525-.135-.103-.4-.093-.526.019-.162.143-.19.334-.072.542Zm.766-1.153a.427.427 0 0 0-.423-.42.418.418 0 0 0-.415.423.41.41 0 0 0 .418.418c.23 0 .421-.193.42-.421Zm-.13.442.271.436c.058-.061.133-.131.196-.21a.16.16 0 0 0 .024-.126c-.19-.668-.243-1.353-.265-2.043-.012-.377-.04-.753-.065-1.129a1.83 1.83 0 0 0-.036-.255.424.424 0 0 0-.442-.325.427.427 0 0 0-.417.415c-.04.493-.075.987-.095 1.48-.026.626-.082 1.246-.258 1.85-.012.039-.007.099.016.129.068.088.149.166.209.23l.282-.453c-.261-.21-.311-.54-.109-.781.183-.218.555-.25.75-.041.085.091.142.229.164.354.035.208-.087.365-.224.47Zm-6-.052c.49-.137.99-.251 1.466-.43.535-.203 1.072-.387 1.634-.486.486-.085.977-.145 1.477-.218.002-.02.007-.05.009-.082.021-.463.036-.925.067-1.387.01-.127-.024-.198-.133-.257-1.304-.695-2.618-.72-3.913-.005-.65.359-1.05.91-1.053 1.695a1.96 1.96 0 0 0 .32 1.114c.022.033.09.065.126.056Zm.083 4.036a.482.482 0 0 0 .487-.477.489.489 0 0 0-.475-.494.481.481 0 0 0-.493.489c0 .273.207.48.48.482Zm-.503-.818c.257-.26.515-.321.849-.158l.188-1.177c-.02-.01-.038-.021-.056-.032l-.35.281a1.339 1.339 0 0 0-.536-.807c-.19.31-.263.627-.206.944l-.438-.146-.032.05.581 1.045Zm-.846.943-.07.364c.378-.142.733-.26.991-.57-.178-.188-.18-.408-.125-.635-.34-.194-.707-.182-1.113-.194l.182.31c-.501.225-.627.316-.724.53.26.17.545.235.86.195Zm2.682-1.209.066-.346c-.448.12-.745.287-.965.537a.63.63 0 0 1 .128.602c-.007.024.027.079.055.092.319.155.66.145 1.032.15l-.183-.308c.465-.197.563-.264.74-.51a1.222 1.222 0 0 0-.873-.217Zm-2.113-1.835a.227.227 0 0 0 .22-.212.229.229 0 0 0-.206-.228c-.115-.007-.23.1-.232.215a.215.215 0 0 0 .218.224Zm-.467-.696a.219.219 0 0 0 .216-.214c.003-.127-.078-.215-.202-.22a.214.214 0 0 0-.228.2.217.217 0 0 0 .214.234Zm-.024-.988c-.004-.112-.11-.216-.22-.214a.236.236 0 0 0-.218.231.217.217 0 0 0 .233.21.228.228 0 0 0 .205-.227Zm-2.158 5.581.051-.061-.348-.219a1.44 1.44 0 0 0 .71-.628l-.929-.098a123.31 123.31 0 0 1-.026-.307c-.255.159-.501.283-.712.452-.13.105-.213.273-.307.42-.016.024.003.09.027.119.087.106.18.207.276.306a.216.216 0 0 0 .104.06c.389.084.771.01 1.154-.044Zm1.026-.418c-.1-.104-.226-.054-.274.084a.434.434 0 0 0 .088.437c.054.064.178.137.234.115.08-.03.125-.147.204-.251-.092-.146-.153-.284-.252-.386Zm.284.529a.245.245 0 0 0 .049.193c.227.256.515.362.861.363.638.001 1.29-.675 1.005-1.51-.044-.13-.119-.147-.221-.05-.31.288-.7.406-1.103.556l.035-.389c-.321-.026-.624-.097-.872-.316.177-.29.426-.468.714-.588a693 693 0 0 0-.186-.386l1.135.1-.552-1.026h.502c.022-.122.035-.252.071-.374.038-.127.102-.247.149-.373.01-.028.007-.084-.011-.096a.18.18 0 0 0-.124-.027c-.298.062-.492-.13-.413-.42.037-.136-.04-.23-.136-.248-.156-.03-.275-.08-.34-.23-.006-.014-.034-.027-.052-.027-.435.006-.873-.02-1.304.028-.721.08-1.401.322-2.05.645-.359.179-.705.385-1.084.594l.417.48-.622 1.078.602.218.048-.18c.554.178.654.61.638 1.061l1.077-.677.043.406c.332-.02.642.02.942.16-.12.296-.34.485-.592.64l.288.354c-.23.032-.425.065-.622.084-.199.02-.398.028-.604.042.303.35.757.68 1.09.798.46.163.837-.114.82-.606-.002-.04-.037-.08-.058-.12-.075-.138-.17-.27-.219-.417-.05-.152.052-.342.175-.4.125-.058.28-.007.39.145.113.152.164.32.114.515Zm5.113-1.526c-.09-.134-.245-.115-.321.028a.497.497 0 0 0 .06.515c.107.122.236.111.309-.032.033-.065.048-.14.076-.225-.04-.094-.067-.2-.124-.286Zm.147.573a.264.264 0 0 0-.008.188c.205.471.764.755 1.266.65.62-.128 1.006-.652.946-1.286-.027-.283-.05-.295-.288-.138-.393.26-.845.31-1.32.397l.13-.432a1.58 1.58 0 0 1-.925-.507c.252-.274.558-.44.923-.51l-.12-.4.032-.05 1.202.321-.422-1.267.494.069c-.234-.233-.457-.466-.692-.686-.104-.096-.122-.18-.087-.32.098-.388.168-.783.255-1.204-.933.064-1.794.204-2.628.49-.498.17-.991.35-1.49.517-.154.052-.319.074-.52.12l.53.467c-.145.25-.298.507-.443.768-.025.046-.04.124-.018.166.066.134.152.258.222.371l.48-.171-.168 1.156 1.021-.468-.032.41c.311.036.617.1.886.34-.115.12-.213.243-.332.338-.12.096-.261.163-.4.247.03.053.062.107.089.165.025.053.043.11.07.177-.468.008-.907.009-1.368-.22.013.188.008.33.035.467.098.504.574.896 1.094.913.546.017 1.038-.334 1.163-.838a.236.236 0 0 0-.044-.177c-.153-.195-.196-.405-.102-.634.098-.237.364-.265.513-.056.14.196.15.405.056.627Zm5.512-.156c.024-.059.033-.124.049-.183-.012-.053-.01-.108-.036-.144-.046-.065-.106-.164-.163-.166-.07-.002-.172.064-.209.13a.482.482 0 0 0-.062.304c.019.095.093.223.174.253.134.05.2-.084.247-.194Zm-.054.407c.145.504.63.848 1.176.827.527-.021.998-.425 1.09-.938.024-.134.067-.273-.029-.417-.41.208-.848.203-1.32.194.06-.132.113-.244.168-.36a1.382 1.382 0 0 1-.715-.585c.258-.216.557-.291.876-.316l-.048-.417 1.03.471-.166-1.167.485.187c.044-.082.086-.183.149-.27.06-.082.052-.145.002-.228-.162-.27-.316-.545-.47-.812l.514-.454-.107-.023c-.465-.13-.947-.218-1.392-.397a9.564 9.564 0 0 0-2.089-.588c-.327-.052-.658-.084-1.024-.13.048.281.083.52.13.757.04.212.175.449.119.627-.061.192-.297.329-.454.491-.115.12-.227.242-.337.36l.561-.106-.423 1.274 1.193-.316.032.05-.113.398c.363.072.67.233.935.529-.156.112-.29.23-.444.313-.153.083-.325.131-.489.195l.119.409c-.553-.09-1.069-.171-1.528-.548-.026.136-.05.225-.059.316a1.176 1.176 0 0 0 .833 1.235 1.165 1.165 0 0 0 1.372-.603.302.302 0 0 0 0-.218c-.091-.224-.078-.432.066-.625.153-.205.415-.168.51.071a.558.558 0 0 1-.108.616c-.06.066-.068.116-.045.198Zm5.25.758c.09-.102.138-.241.212-.38-.067-.096-.109-.22-.173-.233-.076-.015-.195.045-.253.11a.417.417 0 0 0-.09.42c.053.162.191.21.303.084Zm.712.856c.463-.124.788-.449 1.128-.753.024-.022.04-.052.047-.062l-1.229-.126.31-.366c-.262-.157-.477-.349-.613-.681l.958-.16.052-.347c.19.11.378.21.556.324.18.114.348.243.514.36.013-.662.206-.994.637-1.067l.056.177c.118-.055.22-.114.33-.154.182-.065.189-.07.09-.246-.175-.308-.352-.613-.524-.914l.358-.407c-.047-.035-.07-.058-.096-.073-.466-.255-.918-.54-1.402-.755-.89-.394-1.82-.62-2.806-.51-.051.006-.126.024-.146.06-.066.125-.167.17-.297.19-.119.017-.192.145-.159.257.081.273-.122.488-.399.423-.037-.009-.075-.015-.104-.02l.28.889h.47l-.551 1.022 1.133-.099-.186.389c.308.12.55.306.718.587-.255.221-.564.282-.874.32l.036.384c-.397-.154-.785-.267-1.09-.55-.12-.11-.186-.09-.24.058-.173.477.028 1.068.448 1.32.48.287 1.058.22 1.414-.176a.277.277 0 0 0 .056-.21.592.592 0 0 1 .197-.595c.19-.166.426-.079.472.169a.595.595 0 0 1-.186.571c-.03.028-.066.06-.074.096-.09.41.312.784.716.675Zm1.973-1.318a.585.585 0 0 0-.455.406c-.042.178.05.294.234.293.21-.001.42-.17.483-.385.055-.189-.067-.336-.262-.315Zm-3.132 2.877c-.135.03-.274.042-.45.068.127.101.229.185.334.264.211.159.353.148.56-.042-.033-.048-.073-.093-.099-.145-.074-.151-.19-.18-.345-.145ZM21.361 43.12c0-1.217 0-2.434-.003-3.65 0-.07-.014-.158-.056-.207-.741-.867-1.14-1.874-1.242-3.004-.012-.128-.026-.256-.04-.384l-.035.004v14.453c.439-.15.836-.36 1.222-.596.112-.069.158-.145.157-.282-.005-2.111-.003-4.222-.003-6.334Zm2.672-2.307c0-.038.012-.081-.003-.112-.019-.04-.054-.093-.09-.1-.393-.078-.787-.148-1.19-.222v7.92c.055-.064.09-.102.12-.143a6.104 6.104 0 0 0 1.164-3.626v-3.717Zm4.07-5.18c-.02-.206-.032-.526-.087-.837-.208-1.177-.717-2.195-1.658-2.959-.828-.672-1.774-.951-2.835-.754-.968.18-1.72.712-2.307 1.481-.66.865-.988 1.854-1.026 2.936-.05 1.431.351 2.709 1.333 3.778 1.385 1.508 3.602 1.58 5.073.157 1.042-1.007 1.476-2.267 1.507-3.803Zm-.137 2.254h.631v-.393h-.631v.393Zm1.95.384c-.049-.041-.121-.074-.142-.127-.102-.258-.31-.252-.528-.234-.048.004-.101-.012-.144.004-.05.02-.114.054-.134.099-.047.106-.071.222-.1.32h-1.246c-.068.111-.155.24-.225.379-.018.036.002.112.03.15.128.16.264.312.397.468.226.263.227.266.551.127.082-.034.124-.014.175.048.207.248.422.49.626.74.029.035.033.118.012.16-.051.105-.123.199-.188.3.303.354.6.703.9 1.048.026.03.076.041.115.061.019-.045.052-.09.053-.135.005-.318.004-.636.002-.953 0-.145.044-.326-.026-.424-.067-.096-.255-.107-.408-.161v-.909c0-.274.001-.272.262-.353.059-.018.156-.045.16-.08.02-.131.025-.27.005-.4-.007-.05-.096-.085-.147-.128Zm.649-.574a.278.278 0 0 0-.256-.28.261.261 0 0 0-.287.256c-.007.16.103.284.256.291a.28.28 0 0 0 .287-.267Zm1.585 2.94.415-.494-.298-.253-.416.497.3.25Zm2.028-2.31c-.034.022-.075.038-.1.067-.41.485-.819.972-1.232 1.463l.247.385-.481.572c-.09.106-.168.268-.28.298-.108.029-.254-.08-.383-.128-.009-.003-.02-.002-.046-.004-.295.351-.598.708-.897 1.068-.057.07.027.25.12.254.156.007.311.002.47.002.032-.11.064-.206.085-.305.02-.095.067-.129.167-.126.247.007.495.003.743.003.317 0 .32-.001.411.308.028.093.072.127.17.122.172-.008.344.002.516-.005a.207.207 0 0 0 .129-.06c.127-.133.246-.272.408-.454v-.604c0-.348 0-.348-.326-.449-.039-.012-.077-.027-.118-.042 0-.337.008-.666-.004-.994-.005-.142.028-.22.177-.243.089-.013.174-.05.272-.08 0-.321.002-.622-.002-.924 0-.041-.03-.082-.046-.123Zm.55-.643a.268.268 0 0 0-.281-.268.273.273 0 0 0-.266.27.276.276 0 0 0 .275.278.272.272 0 0 0 .271-.28Zm-.459 2.731h.369v-.63h-.369v.63Zm-2.256 2.303h.625v-.374h-.625v.374Zm.197 2.364.296-.254-.422-.494c-.1.087-.193.166-.297.254l.423.494Zm-2.166 3.63a.276.276 0 0 0 .27.268.274.274 0 0 0 .275-.276c0-.158-.114-.27-.276-.268a.263.263 0 0 0-.269.277Zm.086-2.51h.369v-.63h-.369v.63Zm-.024-6.34h.374v-.625h-.374v.625Zm-.368 2.672c0 .32.254.572.574.574a.574.574 0 0 0 .585-.578.59.59 0 0 0-.574-.58.589.589 0 0 0-.585.584Zm-1.246 1.8-.42.495.297.253.42-.495-.297-.254Zm-.559-1.622h.66v-.371h-.66v.371Zm.48-2.043.297-.256-.42-.49-.296.254.42.492Zm-1.617.03c-.118.035-.219.075-.323.095-.103.02-.125.074-.122.168.005.242.007.485 0 .727-.002.116.02.19.135.256.105.06.174.182.261.275.03.031.067.079.101.08.236.007.472.004.707.004.047-.151.09-.287.13-.42h1.185c.051.142.062.334.157.395.108.07.291.022.441.025h.032c.107-.012.158-.122.087-.206-.306-.366-.617-.73-.93-1.099-.117.052-.223.104-.333.144-.037.013-.103.01-.124-.013-.248-.28-.49-.567-.733-.85l.247-.387-.633-.746c-.068.073-.122.14-.184.197a.3.3 0 0 0-.106.261c.015.365.005.73.005 1.094Zm-.835-.285h.361v-.551c-.187.158-.484.205-.361.55Zm-.009 4.463h.375v-.625h-.375v.625Zm.45-2.355a.275.275 0 0 0-.285-.267.263.263 0 0 0-.264.267.263.263 0 0 0 .271.274c.155 0 .28-.124.277-.274Zm.329 3.906a.264.264 0 0 0-.264.282c.006.147.126.26.273.26a.279.279 0 0 0 .276-.277.274.274 0 0 0-.285-.265Zm.457-.603c.144-.206.324-.388.488-.58.04-.048.077-.099.113-.146-.067-.103-.134-.188-.18-.285-.022-.044-.023-.128.005-.162.227-.28.464-.55.705-.833.114.051.215.09.31.14.075.042.123.03.178-.035.259-.31.524-.614.781-.925.028-.034.032-.111.013-.152-.019-.04-.078-.071-.126-.087-.044-.015-.096-.003-.144-.003-.32 0-.324-.001-.411.307-.03.106-.078.144-.192.14-.23-.01-.463-.003-.694-.003-.338 0-.342 0-.437-.318-.03-.1-.078-.136-.183-.129a3.28 3.28 0 0 1-.435 0c-.13-.009-.224.014-.28.149-.028.065-.088.14-.15.163-.205.077-.193.236-.19.406.005.34.002.337.332.442.044.014.097.078.1.123.02.236.025.472.037.709.006.118.062.266.01.345-.055.084-.214.096-.32.154-.037.02-.081.09-.073.125.044.188.1.374.163.556.012.037.07.069.113.082.2.06.343-.007.467-.183Zm.906 2.01-.19.35.568.312.192-.345-.57-.317Zm1.032.026-.073.403c.142.038.267.069.39.104.147.041.276.062.36-.117.034-.07.132-.106.195-.164.034-.032.08-.077.081-.117.006-.452.004-.904.004-1.365-.11-.034-.217-.073-.326-.098-.09-.02-.12-.066-.116-.157.006-.232.002-.463.002-.695 0-.358 0-.356.337-.477.043-.015.101-.072.102-.11.006-.572.005-1.143.002-1.714 0-.033-.03-.077-.06-.096-.015-.01-.068.017-.089.041-.285.33-.567.661-.856 1l.247.38c-.2.235-.393.459-.584.685-.184.22-.183.22-.44.11-.053-.024-.107-.046-.167-.071-.25.294-.5.583-.744.877-.025.03-.03.1-.015.14a.707.707 0 0 1-.022.593c-.016.034-.019.098.002.124.122.15.252.291.384.44.12-.11.195-.188.281-.252.032-.023.1-.032.134-.014.319.175.633.358.97.55Zm3.352-.027-.562.319c.06.112.117.214.189.345l.568-.313-.195-.35Zm.339-.28.457-.449c-.143-.246-.164-.471-.062-.707.012-.027.007-.078-.012-.1-.25-.3-.506-.599-.76-.897-.115.05-.216.103-.323.137-.043.014-.121.006-.147-.024-.243-.273-.479-.553-.718-.833l.25-.389c-.265-.32-.524-.636-.787-.949-.03-.035-.081-.054-.123-.081-.017.05-.05.1-.05.151-.004.463-.003.926-.003 1.39 0 .346 0 .346.326.446l.103.037v.884c0 .306.001.313-.297.39-.106.026-.136.071-.134.175a39.2 39.2 0 0 1 0 1.163c-.001.105.031.158.126.21.094.052.164.15.248.224.032.028.078.068.11.061.167-.033.331-.078.505-.122l-.077-.42 1.06-.567.308.27Zm1.024-1.127a.276.276 0 0 0-.28.271c0 .144.119.266.264.273a.264.264 0 0 0 .28-.265c.004-.16-.107-.278-.264-.28Zm-.11-1.304c.017-.377.03-.741.052-1.105.003-.037.05-.086.089-.102.111-.048.274-.048.33-.128.06-.084.017-.238.02-.362 0-.032-.005-.065 0-.097.016-.104-.025-.162-.12-.212a.49.49 0 0 1-.208-.195c-.072-.146-.172-.187-.32-.166-.053.007-.107 0-.161 0-.358 0-.356.001-.474.341-.014.04-.062.098-.096.099-.37.007-.742.004-1.115.004l-.027-.086c-.117-.363-.117-.36-.51-.357-.082.001-.134.015-.174.101-.042.09-.012.138.04.199.186.217.369.435.55.656.232.28.23.279.558.15.04-.015.113-.013.136.012.246.278.485.561.73.849l-.245.384c.237.278.466.548.698.817.038.043.083.11.128.112.105.006.212-.018.317-.037.017-.003.033-.042.04-.067.067-.213.132-.428.2-.652l-.438-.158Zm.517-.24h.384v-.63h-.384v.63Zm.472-2.358c0-.16-.114-.274-.272-.27a.273.273 0 0 0-.27.263.273.273 0 0 0 .271.28c.16.002.272-.111.271-.273Zm-2.714-4.638h.632v-.397h-.632v.397Zm-.147.467c-.089.002-.13-.022-.159-.114-.1-.33-.105-.324-.462-.331-.172-.004-.331-.014-.4.194a.23.23 0 0 1-.122.126c-.197.076-.212.228-.194.404.006.058.001.117.001.194.123.037.238.067.348.109.036.014.086.058.087.09.006.375.004.751.004 1.123-.125.037-.236.061-.34.104-.042.018-.096.075-.097.115-.007.441-.006.883-.002 1.325 0 .035.025.088.052.1.024.01.078-.019.1-.045.278-.33.555-.659.825-.995.027-.034.026-.118.004-.162-.053-.103-.126-.196-.19-.292l.765-.91c.117.05.218.101.325.134.044.013.122.005.148-.026.413-.481.822-.968 1.23-1.454.066-.08.046-.13-.06-.131-.118-.003-.237-.001-.355-.001-.312 0-.315-.001-.398.304-.026.096-.062.143-.173.14a23.414 23.414 0 0 0-.937 0Zm-7.67-17.058v9.571c.053.006.09.013.126.014a3.341 3.341 0 0 1 1.62.484c1.335.809 2.005 2.044 2.249 3.544.043.263.055.532.081.797h8.238v-14.41H24.189ZM8.804 29.942c.074-.021.17-.031.235 0 .108.051.2.139.314.222l.116-.22c-.24-.215-.72-.257-.968-.095-.211.138-.302.416-.177.62.062.1.167.178.266.249.121.087.266.143.382.237.142.114.1.31-.066.375a.442.442 0 0 1-.55-.21c-.015-.03-.038-.056-.074-.108l-.14.343c.228.143.463.186.708.16a.957.957 0 0 0 .337-.098c.349-.183.364-.594.032-.826-.157-.111-.333-.197-.485-.315-.137-.106-.096-.286.07-.334Zm-1.038-.244c-.209-.044-.3.024-.353.22-.073.274-.19.536-.29.802-.023.061-.053.12-.094.21-.187-.367-.354-.703-.53-1.035-.026-.05-.092-.11-.143-.112-.138-.008-.278.013-.442.024.025.053.042.09.062.127.26.47.517.94.781 1.408a.226.226 0 0 0 .148.095c.091.013.176.013.224-.115.187-.497.39-.987.588-1.48.018-.047.032-.095.049-.144Zm-1.862 1.83a56.966 56.966 0 0 1-.048-.221l-.64.163-.315-1.462-.452.097.355 1.66 1.1-.238Zm-1.92-.922c-.086-.206-.252-.299-.522-.227-.31.082-.607.206-.916.315.199.514.386 1.006.581 1.495.015.036.087.082.12.074.112-.03.219-.082.344-.133l-.252-.68c.09-.042.17-.075.244-.116.076-.04.15-.084.22-.135.215-.155.277-.363.18-.594Zm43.479 1.44c-.256.65-.524 1.295-.8 1.97-.154-.515-.532-.791-.935-1.036-.804-.49-1.69-.77-2.6-.977-.906-.207-1.824-.34-2.754-.3-1.197.053-2.38.2-3.526.572-.15.049-.191.117-.19.272.008.986.002 1.972.004 2.958.007 2.983.045 5.967.014 8.951-.028 2.633-1.221 4.598-3.58 5.81a19.353 19.353 0 0 1-4.84 1.703c-.024.006-.048.02-.072.03h-.072c-1.236.248-2.84.434-4.127.434-1.051 0-2.7-.206-3.884-.434-.42-.107-.843-.208-1.262-.322A18.676 18.676 0 0 1 15 50.182c-1.81-.959-2.906-2.462-3.303-4.467a6.697 6.697 0 0 1-.118-1.266c-.01-2.79-.005-5.582-.005-8.372 0-1.202 0-2.403.008-3.604 0-.11-.047-.142-.132-.162-.616-.148-1.225-.34-1.85-.43-.738-.108-1.49-.183-2.234-.17a10.905 10.905 0 0 0-4.302.96c-.454.203-.89.444-1.223.824-.121.139-.205.31-.303.462-.008-.013-.034-.055-.053-.1-.23-.556-.452-1.116-.69-1.669-.117-.269-.07-.504.089-.73.219-.31.52-.527.84-.718.897-.537 1.88-.85 2.89-1.08 1.571-.356 3.158-.398 4.754-.235.725.074 1.44.19 2.133.419.02.006.042.005.078.01V21.13h7.782l.002-.022c-.385-.07-.773-.125-1.153-.212a40.94 40.94 0 0 1-1.782-.448c-.375-.104-.45-.429-.186-.716.137-.149.085-.41-.097-.492l-.449-.202c.082-.114.152-.222.233-.32.057-.071.057-.132-.017-.175-.107-.062-.22-.152-.333-.159-.362-.02-.49-.216-.318-.555l-.214-.056c-.582-.154-1.001-.529-1.346-1-.075-.102-.134-.172-.29-.167-.319.01-.586-.298-.588-.625a.536.536 0 0 0-.046-.181c-.017-.045-.052-.082-.075-.124-.233-.42-.598-.601-1.068-.594l-.226-.003c-.004 0-.01-.004-.014-.006-.055-.335.121-.593.607-.86-.29-.092-.307-.365-.43-.566-.715-1.173-.56-2.562.399-3.585.758-.808 1.71-1.248 2.785-1.448a6.958 6.958 0 0 1 2.123-.05c.046.004.095-.02.141-.015.102.01.225 0 .301.053.118.083.173.056.268-.032.749-.69 1.58-1.221 2.62-1.358.96-.125 1.876.004 2.743.444l.108.056.066-.18c-.206-.05-.367-.141-.345-.385a.295.295 0 0 1 .233-.276c.184-.05.296.02.433.258l.158-.1c-.06-.034-.106-.059-.15-.086-.376-.239-.573-.585-.557-1.027.016-.463.247-.81.669-1.006.115-.054.146-.114.141-.23-.008-.18-.002-.362-.002-.557h-.588v-.71h.583v-.58h.708v.574h.6v.705h-.597c0 .24-.003.463.003.686.001.03.043.073.076.088.459.207.705.568.709 1.063.003.483-.238.838-.673 1.056-.008.004-.013.016-.028.035l.14.093c.117-.233.244-.31.429-.263.132.033.238.17.24.31.002.171-.108.282-.354.348l.044.145c.4-.135.782-.305 1.181-.39 1.31-.278 2.537-.093 3.623.742.25.192.491.4.742.591.038.029.13.038.162.013.127-.103.252-.108.407-.072.11.025.233-.01.35-.02 1.142-.098 2.247.037 3.29.535.646.309 1.202.736 1.625 1.32.731 1.008.766 2.245.104 3.304-.044.069-.048.16-.078.239a.239.239 0 0 1-.067.085c-.072.064-.146.125-.23.196l.301.118c-.045-.289.05-.459.264-.483a.332.332 0 0 1 .369.285c.029.209-.126.342-.412.37l.176.547c-.267.034-.499.045-.722.094-.372.082-.728.528-.751.907-.018.292-.331.58-.63.556-.107-.01-.154.03-.207.104-.313.442-.685.817-1.211 1.003-.126.044-.256.075-.393.114.018.044.038.085.053.128.076.215-.056.426-.28.414-.223-.013-.37.082-.5.265.088.124.18.254.281.4l-.438.2c-.168.077-.217.334-.11.486a.756.756 0 0 1 .141.312c.029.21-.073.353-.286.405-.777.19-1.556.374-2.336.554-.208.048-.421.072-.63.131h7.871v8.721c.25-.066.484-.137.722-.189 1.356-.297 2.729-.375 4.111-.293 1.462.087 2.875.393 4.223.975.48.207.94.456 1.334.807.188.166.357.349.416.6a.538.538 0 0 1 .002.3ZM23.839 36.93l-.114-.038c-.16-.055-.308-.04-.43.085a.361.361 0 0 0-.071.43l.154.341c.084-.135.186-.196.323-.153.121.039.176.13.167.268l-.295.016v.312l.232.011-.176.395c.241-.177.371-.02.469.12.082-.069.149-.166.232-.183.086-.018.187.043.294.072l-.192-.416h.25v-.322h-.301c-.015-.134.038-.218.148-.264.153-.064.255.017.343.138.055-.121.11-.231.156-.346.108-.274-.07-.532-.364-.527-.076.002-.151.025-.249.043.16-.468.034-.867-.298-1.226-.317.371-.452.768-.278 1.244Zm-1.325-2.401c-.046-.012-.072-.015-.095-.024-.164-.064-.316-.053-.443.078-.123.127-.135.276-.069.433.045.106.097.21.152.329.093-.134.203-.195.342-.137.106.045.164.13.143.26l-.3.017v.31l.246.014-.18.39c.119-.026.22-.082.293-.056.08.029.132.133.18.185.078-.067.145-.169.233-.191.08-.021.183.043.29.074l-.182-.4.23-.019v-.308l-.297-.018c-.001-.141.053-.228.167-.264.141-.046.247.016.329.157.063-.151.13-.28.173-.417a.364.364 0 0 0-.343-.47c-.09 0-.18.025-.287.04.173-.474.016-.866-.294-1.226-.323.366-.444.769-.288 1.243Zm2.544-.029c-.165-.062-.32-.05-.446.083a.36.36 0 0 0-.07.431l.159.344c.081-.148.19-.205.333-.152.112.04.166.129.142.262l-.283.017v.31l.229.017-.174.395c.11-.03.213-.09.291-.068.078.022.131.128.21.214.12-.232.286-.266.51-.114l-.198-.42c.277-.043.295-.071.226-.336l-.283-.015a4.483 4.483 0 0 1-.036-.04c.057-.073.1-.17.174-.214.138-.08.252.005.352.128.06-.135.12-.249.162-.369a.37.37 0 0 0-.354-.504c-.086 0-.172.03-.266.048.149-.467.034-.865-.293-1.214-.321.297-.413.669-.299 1.234-.04-.017-.062-.028-.086-.037Zm-.852 16.01c.57-.534.576-1.43.006-2.005-.58.492-.578 1.52-.006 2.004Zm16.856-29.287a7.604 7.604 0 0 0 3.127-.008c-.816-.276-2.596-.242-3.127.008Zm2.486-.589c.031.037.056.093.095.105.102.03.21.05.315.056.04.002.084-.047.126-.073-.037-.038-.066-.096-.11-.11-.09-.029-.19-.034-.323-.055l-.103.077Zm-2.296.168c.11-.02.223-.033.331-.063.034-.01.056-.064.083-.097-.04-.027-.08-.079-.117-.077-.107.003-.214.02-.316.049-.04.01-.087.064-.093.103-.007.047.028.1.044.151l.068-.066Zm1.371-.302c-.08 0-.161-.009-.24.004-.037.006-.067.052-.1.08.03.033.057.09.088.092.165.009.332.008.497-.002.03-.001.07-.058.08-.096.004-.018-.051-.069-.084-.073-.079-.011-.16-.004-.24-.004V20.5Zm-35.493.704a6.453 6.453 0 0 0-3.07.002 6.892 6.892 0 0 0 3.07-.002Zm-2.915-.59c-.036.01-.06.068-.089.104.038.027.077.079.113.077.105-.005.212-.024.313-.053.039-.012.09-.067.09-.101-.001-.033-.062-.064-.083-.085-.135.021-.242.03-.344.058Zm2.853.099c-.035-.034-.063-.087-.104-.099a1.264 1.264 0 0 0-.3-.048c-.041-.002-.085.04-.128.063.028.037.05.097.086.109.1.031.208.043.346.07l.1-.095Zm-1.699-.21c-.037.006-.068.052-.102.08.034.033.067.092.104.094.155.011.31.01.465.001.035-.002.067-.052.1-.08-.033-.033-.063-.085-.103-.094-.071-.015-.149-.004-.224-.004-.08 0-.162-.009-.24.004Zm39.987 11.252.43.247.058-.58-.488.333Zm-41.817-.967c-.093-.195-.254-.227-.492-.088.074.19.147.384.224.586.287-.106.374-.278.268-.498Zm40.436.041a.548.548 0 0 0 .068-.375c-.038-.138-.202-.147-.345-.162l-.14.618c.166.018.33.07.417-.08ZM24.037 7.862c.062.008.156.097.157.153.001.056-.088.148-.15.16-.053.01-.123-.072-.186-.113l-.002-.077c.061-.045.127-.13.181-.123Zm.006-.117c-.137-.003-.263.125-.265.267a.267.267 0 0 0 .27.277.276.276 0 0 0 .26-.274.277.277 0 0 0-.265-.27Zm-.011.839a.237.237 0 0 1 .232.219c.002.108-.103.218-.213.222-.115.005-.229-.105-.229-.221 0-.117.095-.217.21-.22Zm.026-.102a.322.322 0 0 0-.338.314.332.332 0 0 0 .323.334c.166 0 .32-.151.325-.32a.33.33 0 0 0-.31-.328Zm.309 1.224a.339.339 0 0 1-.319.322.317.317 0 0 1-.326-.324.323.323 0 0 1 .322-.329.328.328 0 0 1 .323.33Zm-.327.426a.432.432 0 0 0 .429-.432.426.426 0 0 0-.852-.005.426.426 0 0 0 .423.437Zm-6.854 10.003c.622-.35 4.643-.825 6.887-.813 2.313.012 4.607.205 6.857.793-4.568 1.052-9.137 1.052-13.744.02Zm14.351.06c-.04-.027-.075-.067-.119-.08-1.197-.362-2.425-.57-3.666-.699a43.708 43.708 0 0 0-2.35-.175 28.015 28.015 0 0 0-3.745.056 34.34 34.34 0 0 0-2.674.318c-.76.124-1.509.329-2.262.5-.043.01-.08.044-.12.067l.025.052c.055-.013.11-.032.165-.036.099-.007.202-.022.297-.003.679.137 1.354.3 2.035.42 1.311.234 2.637.342 3.967.378a32.287 32.287 0 0 0 4.242-.15c1.19-.125 2.368-.31 3.528-.601.216-.054.424-.119.637.014l.04-.061Zm-5.36-1.956c-.11-.002-.217-.11-.217-.219 0-.108.104-.218.212-.222a.222.222 0 0 1 .23.216.235.235 0 0 1-.226.225Zm.327-.231a.323.323 0 0 0-.324-.312.33.33 0 0 0-.324.315.338.338 0 0 0 .328.333.333.333 0 0 0 .32-.336Zm-8.632.725c-.137.003-.228-.083-.227-.213.001-.124.087-.207.215-.208.132 0 .213.076.215.205.003.13-.074.212-.203.216Zm.319-.203a.325.325 0 0 0-.328-.327.305.305 0 0 0-.317.312c-.003.192.128.326.319.326.176 0 .32-.138.326-.311Zm12.301-.015c.003.13-.075.213-.203.217-.136.005-.23-.08-.229-.21 0-.125.086-.208.215-.21.132-.001.214.075.217.203Zm-.531.017a.305.305 0 0 0 .32.309c.177-.001.32-.14.325-.313a.324.324 0 0 0-.33-.325c-.19.002-.32.137-.315.33ZM21.74 18a.218.218 0 0 1 .231-.2.207.207 0 0 1 .198.228c-.007.129-.094.21-.218.207a.213.213 0 0 1-.21-.235Zm.21-.302a.314.314 0 0 0-.313.32c0 .183.149.332.327.327a.32.32 0 0 0 .312-.325.31.31 0 0 0-.325-.322Zm6.888.364c.119.017.18.116.167.238-.015.126-.107.198-.224.187-.41-.041-.818-.092-1.226-.15-.119-.016-.187-.109-.174-.233.013-.132.108-.188.216-.201.425.053.834.098 1.24.159Zm.28.235c.017-.153-.111-.318-.28-.342a72.972 72.972 0 0 0-1.197-.157.337.337 0 0 0-.363.278c-.026.17.09.34.265.365.409.057.82.104 1.255.16.137.003.302-.141.32-.304Zm-9.982.015c-.02-.13.04-.232.168-.25a35.07 35.07 0 0 1 1.226-.151c.136-.015.21.068.226.199.013.12-.08.22-.205.235-.367.044-.734.09-1.1.136-.188.014-.297-.04-.315-.169Zm1.484.123c.167-.025.263-.197.234-.368-.027-.162-.168-.286-.33-.268-.416.047-.83.1-1.244.16-.17.025-.272.186-.249.359.021.156.163.275.36.276.389-.05.81-.096 1.229-.16Zm4.232-.698c.171.002.259.08.26.22 0 .14-.09.225-.257.226-.523.002-1.045 0-1.568-.002-.155-.001-.25-.086-.254-.213-.004-.138.087-.227.252-.23.27-.004.539 0 .808 0v-.002c.253 0 .506-.002.76 0Zm.013.544c.217-.002.348-.123.352-.315.003-.201-.128-.33-.352-.331-.527-.003-1.054-.003-1.581 0-.22.001-.359.135-.354.332.004.19.14.313.354.315.258.002.516 0 .774 0 .27 0 .538.003.807 0Zm1.003 20.164c-1.075 1.071-2.623.998-3.624-.179-1.122-1.32-1.196-3.406-.193-4.822.408-.576.939-.993 1.649-1.127.763-.145 1.441.06 2.022.568.692.606 1.045 1.39 1.165 2.29.025.186.032.374.042.505-.02 1.093-.316 2.022-1.061 2.765Zm-4.573-2.114c.123.88.465 1.656 1.126 2.265.585.537 1.273.794 2.075.67.8-.122 1.394-.57 1.84-1.221.579-.845.772-1.789.662-2.797-.102-.936-.461-1.753-1.162-2.4-.97-.896-2.396-.906-3.37-.018-.855.778-1.192 1.777-1.218 2.952.012.152.02.352.047.549Zm9.928-12.444c-.168-.125-.434-.041-.481-.325.21-.033.367.07.48.325Zm.946 2.4.038-.03.372.301a.713.713 0 0 0-.218-.664c-.157-.155-.215-.347-.192-.585l.318.23-.023-.124c-.035-.193-.082-.386-.104-.581-.016-.142.007-.288-.003-.431-.007-.103.029-.156.12-.198.292-.133.591-.134.925-.046-.03-.076-.038-.158-.079-.182-.067-.04-.156-.04-.252-.06a18.632 18.632 0 0 1-.023-.1c-.171-.002-.193.015-.24.184-.184-.037-.277-.201-.197-.317.053.031.102.08.156.085.032.003.093-.058.1-.098.009-.045-.028-.099-.037-.126.026-.053.069-.103.067-.152-.001-.034-.062-.095-.095-.095-.05 0-.1.045-.15.07-.055-.03-.145-.063-.184-.033-.099.078-.051.163.054.219-.089.071-.158.101-.232.005-.03-.04-.084-.065-.107-.107a.505.505 0 0 1-.048-.17c-.002-.016.029-.038.05-.065l.106.13c.049-.053.11-.093.127-.147.014-.04-.028-.1-.04-.136.014-.055.053-.121.035-.158-.024-.049-.094-.075-.156-.119l-.065.13c-.059-.018-.123-.058-.15-.04-.053.033-.086.1-.137.166l.188.079c-.105.097-.186.179-.273.008-.009-.017-.041-.027-.064-.032-.149-.032-.14-.114-.089-.205.063.018.119.054.16.041.037-.011.08-.076.08-.115-.002-.048-.05-.093-.07-.129.013-.044.05-.101.035-.138-.017-.041-.085-.094-.122-.088-.05.009-.093.068-.134.102-.03-.006-.085-.034-.117-.018-.039.018-.089.082-.08.112.015.057.069.103.108.155-.114.097-.297.021-.342-.129.057-.055.115-.093.144-.146.017-.033-.013-.09-.022-.136h-.136c.006-.242-.086-.318-.253-.23.145.268.188.548.132.848-.019.102-.067.146-.17.178-.104.033-.227.096-.278.183-.072.123-.159.159-.284.165-.144.008-.292.008-.433.038-.183.04-.294.076-.194.315.062.149.134.294.205.449l.2-.09.04.135c.082-.022.162-.068.225-.052.047.012.075.104.133.195-.148 0-.243.003-.339 0-.395-.015-.696-.218-.976-.476-.29-.267-.574-.282-.89-.09.154.144.326.28.47.444.223.255.475.399.829.372.269-.02.541.01.827.018-.107.202-.2.217-.359.085l-.112.104c-.04-.04-.073-.07-.098-.093-.06.05-.104.096-.155.131-.1.068-.112.14-.021.222.056.05.118.092.175.14.152.129.153.207-.024.303a.985.985 0 0 1-.363.11c-.181.018-.372-.024-.547.016-.185.04-.329-.018-.47-.1-.292-.17-.576-.353-.864-.527-.327-.197-.4-.525-.186-.845.123-.182.084-.622-.077-.775-.058-.056-.136-.093-.239-.162.02.092.028.138.04.183a.28.28 0 0 1-.133.322c-.126.068-.124.159-.123.267v.261l-.054.012c-.058-.073-.11-.153-.176-.218-.04-.04-.101-.064-.156-.087-.041-.017-.096-.009-.13-.032a.439.439 0 0 0-.635.172c.166.011.34-.008.404.211.023.081.1.152.163.214.069.067.151.12.22.173-.14.042-.268.062-.378.116-.11.054-.232.123-.299.22-.07.1-.08.24-.116.363l.04.025c.126-.124.267-.185.437-.125.147.053.285.066.43-.019.028-.016.119.03.149.07.105.144.197.297.285.434l-.387.171.706.208-.343.211c.115.037.208.084.305.095.47.054.8.326 1.096.691-.204.144-.402.311-.625.434-.153.084-.339.114-.513.152-.048.011-.14-.016-.158-.052-.086-.17-.206-.223-.399-.249-.29-.039-.441.001-.562.272.064-.009.133-.038.189-.021.074.021.19.071.197.121.02.14.106.17.212.206.06.02.114.062.177.1-.215.068-.393.12-.568.182a.394.394 0 0 0-.246.388c.13-.003.262-.035.375-.001.125.037.233.06.351-.002.036-.018.08-.022.119-.032-.198.165-.077.354-.05.529.035.213.165.319.383.33-.072-.293-.078-.316.042-.423.12-.106.155-.226.112-.374-.04-.14.028-.196.156-.22.18-.035.357-.079.532-.118l-.03.329c.015.007.028.015.042.023l.583-.554v.35c.059-.087.086-.146.129-.187.142-.135.284-.273.439-.392.087-.068.163-.057.21.081.136.394.4.695.75.916.226.142.461.268.711.412-.077.017-.133.038-.19.04-.295.013-.591.011-.885.037a.615.615 0 0 0-.335.127c-.167.147-.283.333-.258.58.013.122-.004.247-.006.371-.002.143.036.27.154.36l.079-.406.05.003v.616l.035.003.19-.327c.008.172.02.3.016.426 0 .043-.028.108-.063.126-.358.19-.741-.002-.805-.397-.016-.097-.063-.156-.175-.131a.134.134 0 0 1-.083-.012c-.28-.143-.419-.119-.646.127.179-.016.34.02.369.204.017.11.06.17.137.233.037.03.042.098.062.15-.048.004-.097.017-.144.012-.07-.006-.137-.03-.206-.036-.03-.003-.064.021-.094.038-.037.02-.067.056-.105.064-.252.053-.374.24-.323.503.225-.175.362-.194.542-.042.105.09.175.064.267-.007.044-.035.108-.045.164-.067.01.014.02.028.031.04-.11.14-.129.289-.127.462.002.228.085.385.32.422-.053-.231-.017-.297.184-.416.046-.028.082-.108.086-.166.01-.166.087-.223.247-.187.155.036.314.05.471.076.11.018.22.048.33.057.1.009.231.034.3-.016.116-.085.214-.21.157-.39-.054-.168-.1-.34-.129-.514a3.27 3.27 0 0 1-.047-.572c0-.049.1-.135.157-.138.173-.007.347.018.544.032-.18.3-.116.59-.023.882.099.312.358.477.603.667l-.071-.402.351.441.026-.415c.094.081.177.141.246.215.115.123.131.283.054.4-.082.122-.235.161-.4.095-.11-.044-.195-.025-.27.07a.175.175 0 0 1-.112.058c-.237.019-.38.175-.385.455.195-.19.385-.183.586-.029.033.026.11-.009.166-.012.049-.003.097 0 .146 0l.02.053c-.256.04-.315.234-.388.43a.444.444 0 0 0 .127.512c.05-.092.092-.261.157-.27.238-.036.318-.17.333-.38 0-.004.016-.006.04-.015.009.067.011.13.025.19a.864.864 0 0 0 .058.16c.021.046.063.086.071.134.033.188.228.346.415.313-.087-.156-.154-.327.023-.448.147-.1.124-.195.045-.308-.133-.19-.125-.387-.063-.598.09-.306.21-.596.409-.85.074-.095.094-.206.018-.314-.104-.148-.167-.343-.4-.346-.026 0-.053-.033-.08-.052-.296-.212-.295-.522-.25-.831.049-.327.201-.56.573-.617.761-.116.981-.668 1.004-1.237.016-.403-.123-.76-.261-1.12-.179-.462-.354-.921-.329-1.43.014-.272.075-.505.34-.648.19-.102.274-.292.353-.486.066-.163.144-.323.237-.472.079-.128.185-.24.297-.38l-.48.03c.36-.33.558-.698.527-1.143l-.836.65-.233-.539c-.03.058-.044.071-.042.082.031.302-.08.569-.198.836a2.62 2.62 0 0 0-.23 1.126c.006.255-.032.51-.05.764-.013.177-.055.357-.03.528.048.339.127.673.204 1.007.086.376.228.743.201 1.137-.02.296-.093.572-.409.69-.39.147-.742.07-1.035-.228a3.086 3.086 0 0 1-.636-.98c-.119-.282-.186-.587-.277-.882l.056-.026.309.349v-1.108l.387.458c.089-.235.15-.471.001-.717ZM23.575 48.24l.014-.042c.116.05.233.098.351.148l.285-.356.195.365.338-.203-.065.343c.24.074.45.186.597.391.367.512.216 1.193-.354 1.487-.545.282-1.095.253-1.6-.103-.503-.353-.558-1.12-.112-1.544.12-.114.3-.167.468-.257l-.117-.229Zm.83 3.163c.002-.01.01-.018.014-.028l.002-.044c.395.015.79.038 1.185.043.202.002.408-.013.606-.05.427-.082.718-.42 1.091-.604.005-.002.003-.02.004-.036-1.068-.347-2.061-.309-2.883.594l-.074-.609c.159-.041.314-.066.457-.123.431-.169.728-.462.772-.943.04-.429-.114-.781-.474-1.03-.09-.064-.24-.1-.267-.18-.031-.093.042-.222.068-.336.002-.007-.006-.017-.016-.043l-.416.155-.248-.29-.3.286-.562-.063a6.66 6.66 0 0 0-.017.053c.07.088.142.176.22.27-.728.158-.933 1.2-.539 1.688.24.298.553.45.917.524.045.008.117.042.12.07.02.163.022.327.03.49l-.038.041c-.816-.722-1.748-1.008-2.818-.784.229.192.45.396.691.576.31.233.66.369 1.055.403.367.032.722-.018 1.099-.108l-.16.614c.447-.14.447-.14.482-.536Zm17.068-33.05c.001-.035-.07-.104-.102-.1-.046.005-.115.058-.121.098-.006.042.052.094.108.184.06-.089.113-.134.115-.182Zm.28.014c.026-.047.077-.098.07-.14-.006-.04-.079-.106-.109-.1-.046.01-.106.069-.114.115-.006.036.056.085.088.128.022 0 .044-.002.065-.003Zm1.773.003c.028-.047.08-.097.074-.14-.004-.041-.078-.109-.107-.102-.048.01-.11.067-.118.112-.006.039.056.089.088.133l.063-.003Zm-1.345-.118c-.003-.042-.072-.108-.111-.108-.04 0-.109.066-.112.108-.004.045.053.095.11.185.058-.09.116-.14.113-.185Zm2.691.265c-.007-.043-.075-.106-.117-.105-.039 0-.106.067-.11.109-.002.043.058.09.122.177.055-.09.112-.14.105-.181Zm-.465-.098c-.045.004-.084.069-.126.107.038.04.072.105.116.113.041.007.093-.045.188-.097-.09-.065-.137-.127-.178-.123Zm-.558-.178c-.045 0-.09.067-.135.104.038.044.07.112.115.122.042.01.098-.043.19-.09-.082-.07-.126-.137-.17-.136Zm-3.856.438c.004.043.064.109.106.115.036.004.105-.06.114-.103.008-.04-.044-.093-.095-.19-.067.09-.128.137-.125.177Zm4.983.008c.008.044.079.11.121.11.042-.001.11-.07.115-.115.005-.041-.06-.09-.121-.174-.059.086-.121.138-.114.179Zm-4.184-.269c-.045.009-.078.079-.117.122.044.039.087.105.133.109.043.003.09-.063.174-.13-.092-.052-.147-.109-.19-.1Zm-.468.09c0 .044.067.116.11.12.04.003.117-.06.123-.103.008-.044-.05-.098-.103-.185-.064.079-.13.124-.13.169Zm2.691-.25c.008.045.08.079.124.117.037-.044.102-.087.104-.133.002-.044-.062-.091-.125-.173-.052.09-.11.145-.103.19Zm2.217.734c.01.05.073.11.123.12.03.007.108-.07.111-.113.003-.044-.059-.092-.115-.172-.059.076-.126.128-.12.165Zm-5.38-.107c-.049.014-.082.085-.122.131.045.035.09.098.135.098.044.001.089-.061.167-.122-.085-.054-.143-.117-.18-.107Zm1.227-.4c-.045.006-.082.075-.122.117.045.042.086.11.137.117.038.006.088-.065.164-.128-.084-.052-.136-.111-.18-.105Zm3.05 0c-.046.003-.09.068-.133.106.041.046.077.116.127.129.036.009.092-.058.174-.115-.078-.058-.125-.122-.169-.12Zm-.613 13.722v4.734h.02v-4.734h-.02Zm.453 4.93h.02v-4.802h-.02v4.802ZM30.749 8.111a.219.219 0 0 1-.223.205c-.125-.002-.215-.103-.208-.233a.21.21 0 0 1 .22-.205.218.218 0 0 1 .212.233Zm.112-.012a.33.33 0 0 0-.316-.326.318.318 0 0 0-.336.315.314.314 0 0 0 .318.332.327.327 0 0 0 .334-.321Zm1.558-.023a.208.208 0 0 1-.214.21.22.22 0 0 1-.217-.229.214.214 0 0 1 .219-.208c.127 0 .215.094.212.227Zm.11-.02a.32.32 0 0 0-.321-.315c-.18 0-.333.15-.331.327a.325.325 0 0 0 .335.32.315.315 0 0 0 .318-.332Zm-3.364-.704c-.12.007-.232-.096-.232-.213 0-.11.101-.217.21-.223.117-.006.23.1.233.218a.221.221 0 0 1-.21.218Zm-.01-.544a.33.33 0 0 0-.325.331.317.317 0 0 0 .316.32.315.315 0 0 0 .333-.318.33.33 0 0 0-.324-.333Zm-15.845 2a.222.222 0 0 1-.218-.213c-.002-.107.102-.218.21-.225.115-.007.229.099.233.217.004.12-.098.22-.225.22Zm.008-.546a.333.333 0 0 0-.33.329c0 .177.137.317.315.322a.315.315 0 0 0 .335-.315.328.328 0 0 0-.32-.336Zm-.793.978a.225.225 0 0 1-.208-.223.22.22 0 0 1 .236-.21.212.212 0 0 1 .206.221.223.223 0 0 1-.234.212Zm-.312-.217c0 .179.154.332.33.329a.33.33 0 0 0 .32-.337.316.316 0 0 0-.32-.316.323.323 0 0 0-.33.324ZM19.52 6.87a.233.233 0 0 1 .217-.216.23.23 0 0 1 .224.21c.005.115-.104.229-.22.23a.216.216 0 0 1-.22-.224Zm.547-.003a.339.339 0 0 0-.323-.32.327.327 0 0 0-.327.327c0 .189.137.325.326.324a.325.325 0 0 0 .324-.33Zm8.274.226a.215.215 0 0 1-.223-.22c0-.116.111-.224.228-.219.113.005.211.11.21.223a.226.226 0 0 1-.215.216Zm.323-.211a.34.34 0 0 0-.325-.336.328.328 0 0 0-.327.33c0 .189.134.318.328.318a.32.32 0 0 0 .324-.312Zm2.493 1.203c.005-.125.092-.208.215-.206.13.003.21.094.206.23-.005.125-.093.21-.215.207-.128-.003-.21-.095-.206-.231Zm.538.007a.326.326 0 0 0-.321-.319.323.323 0 1 0-.005.647c.184 0 .33-.149.326-.328Zm-5.258-1.349c-.003-.135.087-.229.216-.225.123.003.205.09.204.22 0 .13-.081.215-.206.216-.125.002-.211-.083-.214-.21Zm-.115 0a.326.326 0 0 0 .32.319.329.329 0 0 0 .333-.323.322.322 0 0 0-.329-.324.32.32 0 0 0-.324.327Zm-4.247.164a.218.218 0 0 1 .212-.233c.112-.006.228.104.23.22 0 .103-.11.215-.216.218a.232.232 0 0 1-.226-.205Zm-.104-.011a.33.33 0 0 0 .315.326.339.339 0 0 0 .335-.326.324.324 0 0 0-.327-.327.313.313 0 0 0-.323.327Zm15.374 4.693c.115-.007.236.1.24.212a.233.233 0 0 1-.224.228.236.236 0 0 1-.22-.215.219.219 0 0 1 .204-.225Zm.015.548a.335.335 0 0 0 .328-.332.321.321 0 0 0-.317-.32.313.313 0 0 0-.333.317.33.33 0 0 0 .322.335Zm-25.775 2.039a.233.233 0 0 1-.217.219.222.222 0 0 1-.223-.224.218.218 0 0 1 .212-.218.229.229 0 0 1 .228.223Zm-.216.321a.333.333 0 0 0 .324-.317.33.33 0 0 0-.326-.33.313.313 0 0 0-.326.324c0 .186.142.326.328.323Zm5.337-6.178c-.108 0-.219-.106-.222-.213-.003-.116.107-.23.222-.23a.24.24 0 0 1 .221.213.234.234 0 0 1-.22.23Zm.003-.546a.323.323 0 0 0-.328.325c0 .177.138.318.314.323a.32.32 0 0 0 .335-.317.322.322 0 0 0-.321-.331Zm-.85.514a.237.237 0 0 1-.212-.223c0-.11.107-.217.216-.22a.236.236 0 0 1 .225.226.222.222 0 0 1-.23.217Zm.013-.546a.324.324 0 0 0-.016.649.316.316 0 0 0 .335-.316.32.32 0 0 0-.319-.333Zm20.095 1.806c0-.119.091-.213.21-.217a.205.205 0 0 1 .218.205c.006.136-.077.229-.206.232a.212.212 0 0 1-.222-.22Zm-.112.006a.33.33 0 0 0 .32.321.325.325 0 0 0 .335-.32.32.32 0 0 0-.326-.326.324.324 0 0 0-.329.325Zm-24.741.642c-.005-.128.086-.222.216-.223a.215.215 0 0 1 .224.219.222.222 0 0 1-.219.211.218.218 0 0 1-.221-.207Zm.22.319a.34.34 0 0 0 .327-.335.324.324 0 0 0-.321-.318.317.317 0 0 0-.33.322c0 .182.146.332.325.33Zm25.76 3.175c-.133.005-.233-.085-.233-.211 0-.12.091-.207.218-.209.13-.002.217.078.22.202.004.125-.079.213-.205.218Zm-.017-.539a.34.34 0 0 0-.325.321.337.337 0 0 0 .327.334.325.325 0 0 0 .326-.328.325.325 0 0 0-.328-.327Zm.24-.263c-.131-.013-.203-.09-.204-.222-.001-.127.097-.21.233-.204.12.005.211.101.207.218a.217.217 0 0 1-.236.208Zm-.308-.21c.002.176.139.318.314.323a.33.33 0 0 0 .333-.324.324.324 0 1 0-.647 0Zm-26.511-.88a.21.21 0 0 1 .232-.207.22.22 0 0 1 .2.226.207.207 0 0 1-.219.205c-.135-.004-.217-.09-.213-.224Zm.213.34a.342.342 0 0 0 .33-.332.322.322 0 0 0-.319-.316c-.193-.003-.33.127-.333.313a.329.329 0 0 0 .322.335ZM26 6.878a.224.224 0 0 1-.214.234.226.226 0 0 1-.22-.226c.004-.135.082-.2.186-.213.14-.002.243.093.248.205Zm-.542.006a.331.331 0 0 0 .32.337.344.344 0 0 0 .332-.331.32.32 0 0 0-.318-.318c-.195-.002-.332.125-.334.312Zm4.423.906c-.108-.01-.208-.122-.204-.23a.226.226 0 0 1 .239-.207c.117.01.21.114.203.226-.007.117-.125.221-.238.21Zm.012-.543a.316.316 0 0 0-.32.316.331.331 0 0 0 .323.335.33.33 0 0 0 .326-.33.315.315 0 0 0-.329-.32Zm-15.774.817c.12 0 .228.11.221.227a.234.234 0 0 1-.222.214c-.113 0-.224-.117-.22-.231a.225.225 0 0 1 .22-.21Zm.004.548a.333.333 0 0 0 .32-.338.32.32 0 0 0-.322-.314.313.313 0 0 0-.326.324.33.33 0 0 0 .328.328Zm6.469-1.68c-.137 0-.206-.079-.22-.205-.013-.12.096-.224.22-.224.119-.001.216.092.219.208.003.13-.087.22-.22.22Zm-.007-.54a.339.339 0 0 0-.321.322.331.331 0 0 0 .326.331.322.322 0 0 0 .325-.328.326.326 0 0 0-.33-.326Zm-9.66 4.775c-.137.002-.23-.085-.229-.214.002-.123.089-.205.218-.207.132 0 .214.077.217.205.003.127-.08.213-.206.216Zm-.33-.207a.319.319 0 0 0 .313.323.332.332 0 0 0 .334-.323.332.332 0 0 0-.327-.332.32.32 0 0 0-.32.332Zm25.93-.769a.205.205 0 0 1 .206-.22c.121-.006.234.098.233.215a.22.22 0 0 1-.218.215.216.216 0 0 1-.22-.21Zm.223.322a.345.345 0 0 0 .325-.337.333.333 0 0 0-.326-.317.318.318 0 0 0-.327.325c0 .183.15.332.328.329ZM10.99 13.689c-.125 0-.218-.088-.22-.207-.003-.127.094-.217.229-.213.128.004.212.09.21.214-.003.124-.09.206-.219.206Zm-.008-.538a.34.34 0 0 0-.321.323.336.336 0 0 0 .329.33.322.322 0 0 0 .323-.33.325.325 0 0 0-.33-.323Zm7.941-5.799c-.126.002-.21-.08-.213-.208-.003-.14.078-.223.215-.219.137.004.203.079.205.16 0 .181-.082.266-.207.267Zm.325-.218a.34.34 0 0 0-.333-.329.341.341 0 0 0-.322.324.314.314 0 0 0 .324.323c.188 0 .332-.137.33-.318Zm-1.925.95c.007-.108.12-.218.224-.207.127.014.205.09.216.217.01.114-.11.227-.224.225-.116-.003-.223-.12-.216-.234Zm.546.007a.325.325 0 0 0-.336-.318.32.32 0 0 0-.313.323c0 .185.14.326.326.325a.323.323 0 0 0 .323-.33Zm-5.984 1.68a.238.238 0 0 1-.217-.218.24.24 0 0 1 .21-.225c.115-.006.23.102.233.218.002.114-.112.227-.226.225Zm-.32-.223a.325.325 0 1 0 .65.003.325.325 0 0 0-.65-.003Zm23.971-.306a.218.218 0 0 1-.219-.23.215.215 0 0 1 .224-.204c.126.002.208.088.207.216a.22.22 0 0 1-.212.218Zm-.33-.222a.342.342 0 0 0 .33.332.332.332 0 0 0 .324-.334.305.305 0 0 0-.319-.31c-.19 0-.334.134-.336.312Zm1.966 2.148c-.131.004-.22-.071-.227-.195-.008-.127.07-.218.195-.226.136-.008.234.075.239.202a.206.206 0 0 1-.207.219Zm-.327-.206a.314.314 0 0 0 .31.323.343.343 0 0 0 .337-.325.343.343 0 0 0-.332-.331c-.182 0-.317.142-.315.333Zm-3.101-2.677a.207.207 0 0 1 .22-.22.216.216 0 0 1 .21.217c0 .123-.088.216-.207.217-.135.002-.222-.081-.223-.214Zm.207.328a.34.34 0 0 0 .335-.327.322.322 0 0 0-.316-.321c-.192-.004-.333.126-.338.31a.329.329 0 0 0 .32.338ZM18.388 7.559c.004.14-.076.225-.213.224-.13 0-.207-.078-.208-.21 0-.13.08-.217.204-.22a.202.202 0 0 1 .216.206Zm-.539.02a.34.34 0 0 0 .323.322.338.338 0 0 0 .332-.33.316.316 0 0 0-.33-.317.316.316 0 0 0-.325.325Zm3.8-.848c0 .116-.111.229-.225.227a.237.237 0 0 1-.219-.233c.004-.105.117-.21.224-.21.109.002.218.11.22.216Zm-.547.01a.324.324 0 0 0 .318.32c.182.004.33-.14.331-.321a.32.32 0 0 0-.325-.327.32.32 0 0 0-.324.329Zm6.385.191a.22.22 0 0 1-.223-.205.221.221 0 0 1 .224-.224c.118.002.211.098.21.218 0 .126-.083.21-.211.211Zm-.016-.54a.345.345 0 0 0-.32.328.34.34 0 0 0 .334.327.325.325 0 0 0 .32-.334.327.327 0 0 0-.334-.32Zm-16.51 6.276a.225.225 0 0 1-.225.221.21.21 0 0 1-.205-.22c.002-.128.083-.208.212-.208.122 0 .217.09.219.207Zm-.542 0a.33.33 0 0 0 .326.332c.176 0 .33-.155.328-.331a.313.313 0 0 0-.32-.311c-.197 0-.332.124-.334.31Zm24.125-4.074c-.002-.131.092-.221.225-.216.123.005.207.094.204.22-.002.126-.088.21-.214.21a.216.216 0 0 1-.215-.214Zm.543.002a.336.336 0 0 0-.323-.337.344.344 0 0 0-.332.332c0 .18.144.315.334.315a.31.31 0 0 0 .321-.31Zm-2.246-.485c.001-.125.087-.207.215-.209.139 0 .207.073.216.206.008.127-.073.212-.203.215-.139.003-.23-.082-.228-.212Zm.214.33a.339.339 0 0 0 .333-.328.337.337 0 0 0-.332-.327c-.182.002-.318.145-.315.335.002.178.139.317.314.32ZM15.23 8.105c.004.13-.072.213-.201.218-.137.004-.23-.08-.23-.21 0-.125.086-.209.214-.21.131-.003.213.074.217.202Zm-.53.01c.001.182.132.32.309.326a.34.34 0 0 0 .338-.322.337.337 0 0 0-.327-.333.315.315 0 0 0-.32.33ZM6.92 31.81v4.037h.026v-4.037h-.027Zm-.45.05v4.23l.025-.001v-4.23H6.47Zm-2.608-11.59-.198.159c.406-.06.838-.148 1.274-.18a9.219 9.219 0 0 1 1.32.001c.43.031.856.12 1.257.178l-.186-.159c-.259.075-.367.04-.54-.18-.204.19-.406.148-.599-.013-.235.14-.35.127-.604-.064-.176.2-.378.197-.595.063-.192.17-.39.195-.6.016-.145.216-.325.262-.53.178Zm40.734.2-.253-.2c-.263.072-.365.038-.535-.182-.204.185-.407.155-.6-.013-.222.15-.419.119-.598-.07-.186.195-.385.215-.606.065-.19.192-.395.19-.598.024-.142.213-.323.258-.528.176l-.257.2a7.806 7.806 0 0 1 3.975 0Zm1.775 21.097c.062-.042.122-.088.18-.136.21-.174.224-.287.023-.474-.18-.167-.386-.305-.576-.46-.08-.067-.135-.05-.202.02-.361.385-.485.838-.395 1.352.043.239.143.453.32.655.071-.437.314-.73.65-.957Zm-43.986-1.07c-.03-.025-.107-.04-.132-.02-.233.18-.465.362-.684.558-.108.097-.096.226.014.326.09.083.19.158.29.23.319.227.547.514.617.924.503-.56.445-1.548-.105-2.017ZM44.687 29.78c0-1.68 0-3.362.003-5.042 0-.142-.073-.138-.172-.138-1.266.001-2.532.003-3.798-.002-.144 0-.18.04-.18.181.005 1.439.003 2.877.003 4.316 0 .038-.01.08.005.111s.056.05.118.1v-4.578h2.85v4.804h.035v-4.806h.41v4.932h.037v-4.935h.578v4.949c0 .043-.008.089.004.128.008.029.044.049.094.099.009-.077.013-.098.013-.119Zm-37.12 1.988v3.748c.367-.275.713-.518 1.04-.783.154-.123.286-.279.403-.437.12-.162.095-.238-.075-.34a1.54 1.54 0 0 0-.318-.154c-.311-.098-.627-.183-.957-.277v-.142c0-.495 0-.99-.002-1.486 0-.048-.023-.095-.036-.141l-.055.012Zm32.796 1.835c-.356.114-.719.214-1.067.349-.196.075-.22.191-.083.354.173.204.363.398.57.567.27.222.565.416.87.636v-3.74l-.055-.017c-.018.05-.052.098-.052.148-.004.548-.003 1.096-.003 1.664-.065.014-.124.022-.18.04ZM7.556 24.924v4.154c0 .043-.006.087.003.128.005.023.035.04.053.06.016-.017.04-.033.044-.054.008-.036.004-.075.004-.112v-4.331c0-.052-.006-.104-.009-.157H3.525v5.255l.054.01c.015-.065.043-.13.043-.195.002-1.583.002-3.167.002-4.75v-.208h2.84v4.565h.045v-4.565h.407v4.533h.044V24.72h.596v.205Zm36.44 14.663h-.043v5.865h-.411v-6.036h-.038v6.04h-2.84V38.158c0-.038.008-.079-.003-.113-.015-.045-.046-.085-.07-.127l-.037.019v7.619h4.134v-5.569c0-.037.008-.08-.006-.111-.015-.032-.053-.053-.11-.108v5.688h-.576v-5.87Zm-36.4-1.658c-.014.067-.038.134-.038.201-.002 2.376-.002 4.752-.002 7.128v.2h-.603v-7.1h-.05v7.095h-.407v-6.857h-.043v6.863H3.62v-5.675c-.054.036-.093.05-.093.063-.003 1.904-.003 3.809-.003 5.709H7.65V37.94l-.053-.01Zm-4.848-4.893c-.072-.005-.165-.013-.214.026-.245.19-.505.371-.709.601-.294.332-.231.702.152.925.238.138.508.23.774.306.245.07.504.092.773.137v2.41l.058.01c.014-.064.04-.126.04-.19.002-1.523.002-3.047.002-4.57 0-.052-.005-.103-.008-.154l-.051-.005c-.118.163-.002.369-.075.568-.242-.022-.492-.047-.742-.064Zm41.988 1.974c.048-.006.096-.008.144-.014.46-.056.917-.132 1.321-.38.42-.258.48-.654.141-1.01-.176-.186-.39-.335-.587-.5-.093-.078-.195-.087-.316-.072-.246.033-.496.044-.751.066v-.34c0-.196 0-.196-.112-.231V36.002c0 .43-.002.861.002 1.291 0 .05.035.1.053.15.017-.004.033-.01.05-.015V35.03c.025-.01.04-.018.055-.02ZM41.669 21.41a3.37 3.37 0 0 1-.616-.103c-.065-.016-.114-.098-.17-.15.06-.043.116-.109.184-.125 1-.236 2.002-.229 3.005-.022.093.02.174.098.261.15-.093.061-.18.157-.282.178-.23.045-.467.063-.702.074-.247.012-.496.003-.743.003-.313 0-.626.012-.937-.005Zm2.97 1.651c.098 0 .244-.022.24.115-.004.126-.146.114-.248.114h-4.037c-.101 0-.243.014-.24-.12.004-.133.148-.109.247-.11h2.035l2.003.001Zm-3.991 1.296c-.043 0-.095.014-.128-.005-.064-.037-.117-.093-.175-.141.054-.05.101-.112.163-.147.042-.023.106-.012.16-.012h3.91c.127 0 .304-.019.302.155-.002.17-.176.15-.305.15h-3.927Zm3.882-.944v.519h-3.878c.09-.168.114-.333-.02-.518h3.898Zm-4.63-.475h5.409v-1.412H39.9v1.412Zm1.742-2.504c.541-.03 1.085-.047 1.625-.025.366.015.73.105 1.093.163.03.005.06.023.135.053l-.23.164.04.215c-.693-.2-1.368-.237-2.046-.198-.39.022-.777.099-1.165.15-.059.007-.119.006-.178.009l.034-.189c-.087-.027-.213-.046-.156-.205-.036.005-.072.01-.086.01l.028.326c.09.026.156.075.096.213-.019.042.029.132.071.176.048.05.124.072.222.124h-1.328v1.638h.46c-.056.185.037.27.172.332.124.058.213.164.187.29-.021.102-.117.19-.185.28-.018.023-.056.03-.081.049-.16.122-.143.331.04.415.066.03.146.036.22.036 1.319.002 2.638.002 3.958.002.059 0 .118 0 .177-.006a.26.26 0 0 0 .243-.204c.032-.12-.033-.206-.136-.265a1.493 1.493 0 0 0-.085-.045c-.115-.057-.16-.152-.16-.276.002-.125.056-.221.173-.266.158-.06.25-.154.199-.35h.431v-1.636h-1.313c.09-.046.16-.062.198-.105.044-.051.103-.145.084-.186-.068-.141-.014-.197.083-.215l.063-.322c-.036-.01-.086-.027-.137-.04-.92-.24-1.853-.25-2.79-.148-.273.03-.54.117-.81.179.285-.05.568-.127.854-.143Zm-36.961.977a3.774 3.774 0 0 1-.648-.106c-.062-.015-.108-.1-.161-.153.056-.04.107-.103.17-.119.731-.185 1.476-.21 2.224-.142.287.027.573.084.856.14.07.013.13.077.195.118-.064.057-.12.144-.195.163-.19.05-.388.089-.585.099-.311.015-.624.004-.936.004-.307 0-.614.013-.92-.004Zm2.938 1.65c.098 0 .241-.024.238.117-.002.118-.136.112-.233.112H3.572c-.011 0-.024.004-.032 0l-.214-.122c.07-.036.139-.102.209-.103.689-.008 1.378-.005 2.066-.005l2.018.001Zm-3.974 1.296h-.113c-.105-.005-.216-.035-.198-.154.008-.058.12-.107.192-.146.033-.019.084-.005.127-.005h3.895c.064 0 .135-.006.19.02.051.023.116.084.117.13.002.045-.06.108-.11.135-.048.026-.115.019-.174.019H3.644Zm.037-.425h3.833v-.514H3.682v.514Zm-.774-.999h5.398v-1.406H2.908v1.406Zm1.729-2.503c.53-.03 1.063-.047 1.594-.025.371.016.74.107 1.11.166.03.005.06.022.14.053l-.233.166.04.183c-.368-.055-.71-.124-1.055-.152-.727-.058-1.452-.038-2.166.136-.053.013-.11.01-.164.015l.026-.194c-.085-.024-.198-.057-.155-.206-.036.005-.071.01-.081.01l.026.329c.114.014.14.08.095.21-.016.048.042.136.088.185.042.046.112.064.21.116H2.783c0 .523-.002 1.033.005 1.544 0 .03.072.082.115.087.105.013.212.004.334.004-.061.199.049.276.193.344.197.092.24.333.09.484-.043.044-.106.069-.162.1-.096.057-.157.137-.136.252a.253.253 0 0 0 .227.217c.058.009.118.008.178.008h4.039c.151-.001.266-.067.3-.217.032-.137-.057-.223-.172-.277-.128-.06-.209-.152-.204-.299.004-.138.08-.226.205-.282.134-.062.217-.157.158-.333h.464v-1.642h-1.33c.086-.044.154-.06.192-.104.044-.05.104-.143.084-.184-.064-.14-.022-.2.087-.216l.057-.322c-.036-.01-.087-.027-.139-.04-.92-.24-1.853-.25-2.789-.148-.274.03-.54.118-.81.18.289-.052.576-.131.868-.148Zm38.11-2.143c-.093.122-.168.125-.286 0h.287Zm-.455 1.385c-.04.003-.123-.077-.117-.106.01-.052.072-.13.114-.13.07-.002.14.048.21.077v.075c-.069.03-.137.08-.207.084Zm.318-2.197.085.15.113.022.011.036-.15.07v.34l.151.069a2.968 2.968 0 0 1-.012.04h-.389l-.017-.03.148-.088v-.318l-.138-.09.112-.065.086-.136Zm.386 1.36c-.062-.258-.03-.305.252-.343.334-.045.632.136.687.4-.307-.02-.62-.038-.94-.057Zm-.812-.265c.056.033.044.182.06.26l-.988.064c.043-.32.56-.543.928-.324Zm-.568.91c.015-.012.087.014.102.04a.2.2 0 0 1 .018.139c-.007.029-.06.069-.088.065-.21-.026-.398.03-.584.117-.033.016-.1.007-.12-.017-.028-.033-.043-.098-.03-.136.014-.036.069-.067.112-.08.06-.017.124-.015.187-.021l-.14-.265c.056-.04.111-.105.174-.113.052-.006.161.062.159.088a.694.694 0 0 1-.093.25c-.013.024-.066.027-.1.04.135-.03.284-.006.403-.107Zm2.197-.103c.004-.049.016-.115.049-.14.077-.058.168-.053.217.04.022.044.016.112 0 .161-.018.053-.063.097-.097.145.001.063 0 .124-.002.185.028-.112.096-.177.214-.159.042.007.1.044.112.08.013.04-.006.106-.035.138-.02.024-.084.026-.123.015-.059-.015-.113-.05-.169-.076-.152-.014-.305-.02-.454-.049-.03-.005-.073-.107-.058-.142.019-.045.12-.106.135-.095.116.093.256.077.387.104-.103-.032-.185-.085-.176-.207Zm-3.46.339.062-.003c.032.065.098.138.085.193-.01.043-.114.07-.18.093-.032.011-.073-.004-.11-.007.108.079.21.169.326.231.047.026.135.007.188-.022.02-.012-.004-.105-.008-.161-.003-.05-.01-.102-.007-.151.001-.009.06-.026.067-.018.031.037.058.08.079.124.019.04.013.1.041.123.143.118.383.017.41-.168.007-.05.009-.102.013-.153l.041-.015.085.143c.073.123.24.183.365.117.104-.056.191-.128.093-.267-.017-.024 0-.083.017-.118.008-.015.074-.023.083-.01.026.034.043.079.05.122.008.044-.017.098 0 .134.051.106.22.143.342.086.115-.054.196-.218.166-.32-.05-.166-.096-.332-.14-.499-.003-.014.019-.036.03-.054-.017 0-.038.006-.047-.002-.175-.155-.146-.59.059-.738v.736c.013-.05.035-.1.038-.152.005-.132.003-.264.002-.396-.001-.133.063-.169.212-.12 0 .18-.003.37.002.558.001.04.032.08.05.12v-.732c.205.156.208.613-.004.728l-.07.37c.066-.018.129-.044.194-.048.042-.003.105.014.126.044.023.033.026.106.004.136-.023.032-.087.044-.133.044-.045 0-.09-.036-.137-.037-.03-.002-.087.04-.085.048.033.097.05.224.12.277.069.05.2.044.295.024.076-.016.152-.078.09-.194-.016-.03.022-.095.046-.138.006-.01.08 0 .083.01.011.048.03.116.007.148-.078.106-.006.16.061.21.149.11.349.05.43-.122.018-.037.041-.07.07-.12.042.12.05.232.11.29.063.06.175.087.267.091.101.006.145-.063.123-.174-.006-.03.044-.079.079-.108.01-.009.074.015.076.03.007.044-.003.09-.01.135-.007.056-.04.148-.023.159.052.03.14.059.183.034.108-.063.199-.155.296-.235-.042.003-.089.018-.126.006-.062-.02-.157-.048-.167-.09-.012-.054.043-.125.069-.19l.063-.005.19.25c.029-.023.082-.049.08-.068-.013-.13.032-.205.172-.205l.018-.143c.09-.026.165-.036.224-.073.02-.012.01-.128-.01-.135-.066-.025-.142-.023-.226-.032-.15-.54-.72-.82-1.027-.53.17.01.38-.014.568.04.207.06.329.244.381.466-.131-.065-.25-.141-.378-.182-.136-.044-.284-.052-.426-.08-.021-.004-.05-.021-.058-.04-.077-.183-.175-.122-.275-.02-.15-.491-.494-.634-1.129-.446-.016-.113-.026-.222-.048-.328a.472.472 0 0 0-.072-.19c-.124-.16-.12-.185.07-.251v-.123l-.223-.195c.017 0-.01-.003-.037-.002-.025 0-.051.005-.077.008l.024.038-.193.149c-.035.108.026.166.186.172l-.098.193c-.03.061-.067.121-.083.186-.026.112-.038.226-.056.345-.653-.185-1.014-.034-1.135.45-.109-.115-.21-.171-.282.03-.005.015-.044.024-.068.025a1.322 1.322 0 0 0-.803.31c.057-.25.18-.414.382-.518.205-.104.411-.054.618-.002-.156-.14-.343-.148-.524-.1-.316.086-.481.32-.542.594-.084.006-.157-.004-.214.022-.026.012-.043.126-.027.136.062.04.138.055.231.088l.017.14.042-.018c.032.056.062.113.096.167.027.042.058.08.087.12l.175-.245ZM5.653 17.86l.15.05c-.053.072-.368.111-.4.055-.01-.017.002-.07.008-.07.207-.021.113-.178.128-.284.004-.03-.005-.063-.008-.1-.039-.009-.085-.005-.106-.027-.017-.017-.002-.065-.001-.099.108.022.109-.07.138-.13.044.041.085.085.13.124.032.026.07.044.104.066l-.143.082v.333Zm1.541 1.75c.037.007.088.048.095.081a.181.181 0 0 1-.036.139c-.02.023-.083.02-.122.01-.06-.016-.115-.048-.171-.073h-.134c.022.05.053.098.063.15.026.146.134.262.268.253.117-.008.225-.04.208-.202-.003-.029.043-.066.072-.093.006-.006.05.012.051.021.004.044 0 .09-.002.134-.003.06-.031.152-.005.172.044.033.139.046.184.02.103-.061.189-.151.282-.23-.07.001-.14.011-.206-.001-.036-.007-.09-.053-.09-.081a.22.22 0 0 1 .06-.142c.02-.02.095-.017.118.005.057.054.1.124.149.188.075 0 .091-.036.092-.11 0-.046.043-.122.081-.132.134-.036.185-.119.185-.245 0-.34-.15-.595-.433-.779-.075-.049-.163-.096-.21-.167-.137-.21-.229-.247-.467-.184a.55.55 0 0 1-.291.008c-.314-.1-.628-.177-.962-.14-.032.004-.1-.029-.1-.046-.009-.214-.112-.397-.176-.593-.001-.003.004-.01.01-.023l.13-.023v-.179l-.043.025-.152-.187h-.146c-.006.05-.01.096-.016.137l-.145.04a59 59 0 0 0 .01.164l.173.027c-.039.077-.073.135-.097.197-.03.077-.073.157-.07.235.004.18-.043.249-.224.228-.306-.034-.596.032-.889.106a.72.72 0 0 1-.303.015c-.136-.026-.288-.047-.352.076-.095.181-.262.223-.416.3-.19.095-.34.224-.407.433-.074.227.02.523.194.556.1.018.113.061.124.143.006.044.055.081.084.12l.176-.246.062-.002c.031.065.087.131.084.195-.002.033-.105.069-.166.089-.038.012-.085-.003-.127-.007.102.076.198.164.31.223a.241.241 0 0 0 .203-.003c.068-.042.07-.12 0-.191-.02-.021-.013-.078-.005-.116.002-.012.059-.03.068-.02.028.027.068.069.064.1-.013.093.024.158.108.161.089.004.206-.002.263-.055.068-.064.086-.182.131-.291l.079.015-.004-.042c-.11.015-.22-.041-.33.053-.03.025-.12.024-.148-.002-.03-.028-.045-.11-.026-.148.018-.036.087-.057.136-.065.057-.009.116.004.202.01-.075-.116-.13-.199-.187-.284l.174-.188-.625-.659c.088-.13.194-.156.4-.063.303.137.525.374.726.628.138.175.254.367.36.522.077-.052.14-.127.211-.136.09-.011.192.025.193.16-.008-.132-.042-.252-.07-.374-.008-.033-.001-.07-.001-.105-.194-.239-.197-.735.034-.99v.956l.128-.064c-.032-.023-.09-.045-.091-.069-.006-.23-.005-.46.004-.69 0-.028.057-.068.093-.076.027-.005.088.03.092.053.046.274.093.55-.03.818.03-.02.087-.037.088-.058.014-.192.021-.384.021-.577 0-.095-.02-.19-.03-.284h.045c.265.461.058.895-.133 1.36.123-.035.211-.09.281-.071.063.016.107.11.164.175.016-.019.033-.038.049-.059.165-.23.32-.47.5-.69.172-.209.383-.38.648-.46.133-.041.257-.03.312.085l-.645.684.18.172c-.048.07-.104.132-.134.204-.027.07-.027.152-.038.228.032-.12.11-.182.233-.16Zm.994 15.602c-1.22.871-2.582 1.48-3.948 2.08-.703.309-1.415.6-2.106.934-.315.152-.592.386-.878.594-.122.088-.153.217-.118.374.061.273.099.55.148.826.054.308.11.615.165.923.162-.135.305-.266.46-.381.628-.469 1.342-.765 2.072-1.033 1.467-.542 2.89-1.178 4.168-2.094.37-.265.704-.582 1.04-.889.08-.073.159-.207.15-.306-.05-.62-.126-1.238-.19-1.825-.32.267-.625.556-.963.797Zm30.863-.682c-.056.518-.096 1.04-.173 1.555a.534.534 0 0 0 .163.491c.173.176.346.356.54.507 1.177.916 2.486 1.595 3.868 2.143.664.263 1.33.523 1.982.814.49.218.938.517 1.33.92.095-.546.154-1.077.288-1.589.095-.361-.052-.56-.308-.744-.1-.072-.199-.15-.308-.205-.529-.263-1.049-.55-1.594-.773-1.399-.575-2.783-1.177-4.083-1.955-.605-.362-1.199-.743-1.671-1.32-.014.062-.029.108-.034.156Zm2.9 14.076h1.331c-.37.162-.988.159-1.332 0Zm3.09-1.662h-4.856c.235-.19.35-.415.32-.71h4.197a.814.814 0 0 0 .338.71Zm.5 2.832c-.66-.323-1.325-.317-1.988-.005a2.113 2.113 0 0 1-1.882-.001c-.664-.312-1.329-.315-1.988.008a2.19 2.19 0 0 1-.9.21v-.577c.4-.003.756-.158 1.123-.304.585-.233 1.176-.194 1.752.082.64.306 1.288.298 1.93-.004.644-.304 1.278-.288 1.927-.001.286.126.6.185.926.28v.525a2.26 2.26 0 0 1-.9-.213Zm.904 1.475a2.012 2.012 0 0 1-.886-.204c-.678-.333-1.352-.323-2.033-.001-.61.288-1.229.28-1.838-.006-.676-.317-1.347-.325-2.018.008a2.114 2.114 0 0 1-.887.203v-.576c.404-.003.763-.165 1.135-.31.58-.227 1.167-.188 1.736.084.624.3 1.26.31 1.886.017.677-.32 1.337-.317 2.017 0 .268.125.572.17.888.26v.525Zm-6.61-2.775h5.553v-1.402h-5.553v1.402Zm-.134 3.25c.65-.32 1.301-.314 1.955-.008.631.295 1.269.302 1.9.006.66-.31 1.314-.32 1.971.001.304.148.624.22.973.205v-3.157c-.293-.07-.568-.134-.843-.202-.114-.028-.157-.098-.153-.222.01-.291.003-.582.003-.873v-.512c-.316-.014-.538-.139-.651-.42-.056-.141-.077-.295.027-.414.07-.08.118-.16.06-.238-.05-.068-.146-.11-.23-.143-.055-.022-.124-.014-.187-.014-1.293-.001-2.585-.002-3.878 0a.68.68 0 0 0-.237.036c-.136.051-.19.211-.099.317.155.182.105.36.013.538-.123.236-.34.327-.604.34 0 .463-.006.915.004 1.367.003.138-.042.213-.17.244l-.824.195v3.162c.353.005.67-.061.97-.209ZM6.247 48.603a1.83 1.83 0 0 1-1.297 0h1.297Zm1.781-1.659H3.18c.227-.188.344-.416.318-.712h4.205c-.023.293.083.522.325.712Zm1.396 3.04a2.006 2.006 0 0 1-.875-.196c-.681-.339-1.359-.326-2.047-.003a2.055 2.055 0 0 1-1.822-.005c-.674-.319-1.345-.331-2.017 0-.28.137-.574.196-.895.205v-.569c.11-.012.224-.01.33-.039.197-.052.399-.1.581-.185.656-.309 1.305-.313 1.959-.004.626.296 1.261.306 1.886.014.672-.315 1.327-.315 2.003-.008.274.125.58.177.897.269v.521Zm0 1.265c-.31-.006-.6-.063-.873-.198-.682-.338-1.36-.326-2.048-.004a2.055 2.055 0 0 1-1.823-.004c-.675-.32-1.346-.33-2.018-.001-.279.136-.643.221-.905.195v-.55c.097-.013.189-.016.275-.039.221-.06.452-.104.659-.2.664-.305 1.314-.298 1.974.013.62.293 1.251.288 1.87-.003.66-.31 1.309-.306 1.975-.009.28.125.59.182.915.279v.52Zm-6.603-2.777H8.38V47.07H2.82v1.403Zm5.039-1.899c-.069-.159-.1-.325.036-.482.101-.118.041-.274-.12-.33a.7.7 0 0 0-.223-.027c-1.308-.001-2.617-.001-3.926 0a.724.724 0 0 0-.207.024c-.18.054-.22.216-.11.368a.41.41 0 0 1 .078.216c.008.343-.245.574-.68.625v1.238c0 .33.002.34-.32.423-.22.058-.45.086-.672.126v3.179c.35.005.671-.064.977-.213.651-.318 1.302-.308 1.955.001.603.286 1.225.31 1.826.029.712-.333 1.401-.35 2.105.004.28.141.585.193.906.172v-3.152c-.3-.073-.58-.14-.86-.21-.1-.025-.136-.088-.134-.2.008-.462.003-.925.003-1.402-.298-.011-.52-.124-.634-.389Zm96.643-12.51 1.029 2.312h-1.984l.955-2.312Zm.337-1.404h-.646l-2.743 6.421h.936l.805-1.881h2.714l.852 1.881h.937l-2.855-6.421Zm-6.031-1.657c-.038.253-.15.355-.337.355-.272 0-.852-.327-1.32-.327-.431 0-.684.393-.73 1.077h.383c.028-.216.131-.328.319-.328.44 0 .786.328 1.3.328.431 0 .74-.44.74-1.105h-.355Zm1.937 1.694h-.86v4.943l-4.326-4.943h-.73v6.384h.862v-4.914l4.268 4.914h.786v-6.384Zm-9.802 1.367 1.029 2.312h-1.984l.955-2.312Zm.337-1.404h-.646l-2.743 6.421h.936l.805-1.881h2.715l.851 1.881h.937L91.28 32.66Zm-6.592.861h1.077c.833 0 1.085.505 1.085.973 0 .637-.44 1.002-1.123 1.002H84.69V33.52Zm-.917-.824v6.384h.917V36.32h.955c1.48 0 2.153-.787 2.153-1.788 0-1.01-.637-1.835-2.031-1.835h-1.994Zm-1.21.365c-.448-.3-.935-.449-1.422-.449-1.17 0-1.937.664-1.937 1.703 0 1.75 2.76 1.9 2.76 3.221 0 .355-.327.805-1.038.805-.627 0-1.217-.328-1.685-.927v1.161c.533.402 1.095.59 1.788.59 1.03 0 1.788-.73 1.788-1.732 0-2.032-2.762-2.013-2.762-3.24 0-.448.422-.758 1.011-.758.43 0 .955.15 1.498.665v-1.039Zm-4.091-.365h-3.623v6.384h3.707v-.823h-2.79v-1.985h2.612v-.824h-2.612v-1.928h2.706v-.824Zm-7.286 0h-3.622v6.384h3.706v-.823H68.48v-1.985h2.612v-.824H68.48v-1.928h2.705v-.824Zm-9.718.824h1.413c1.788 0 2.602 1.086 2.602 2.368 0 .787-.477 2.369-2.555 2.369h-1.46V33.52Zm-.917 5.56h2.49c2.105 0 3.387-1.554 3.387-3.192 0-1.507-1.039-3.192-3.397-3.192h-2.48v6.384Zm40.536-12.776c0-1.404 1.058-2.434 2.481-2.434 1.431 0 2.489 1.03 2.489 2.434 0 1.395-1.058 2.434-2.489 2.434-1.423 0-2.481-1.04-2.481-2.434Zm-.945 0c0 1.732 1.319 3.276 3.407 3.276 2.162 0 3.454-1.554 3.454-3.276 0-1.778-1.33-3.276-3.435-3.276-2.069 0-3.426 1.507-3.426 3.276Zm-1.127-3.192h-.861v4.942l-4.324-4.942h-.73v6.384h.86v-4.914l4.27 4.914h.785v-6.384Zm-10.626.787h.59c.89 0 1.245.365 1.254.963.01.534-.271 1.04-1.254 1.04h-.59V23.9Zm-.917-.787v6.384h.917v-2.77h.384c.468 0 .852.15 1.694 1.46l.843 1.31h1.095c-.44-.608-.6-.824-.87-1.264-.487-.795-.843-1.385-1.424-1.769.684-.271 1.068-.823 1.068-1.563 0-1.104-.805-1.788-2.097-1.788h-1.61Zm-1.078 0H82.77v6.384h3.707v-.824h-2.79V26.69H86.3v-.824h-2.612v-1.928h2.706v-.824Zm-5.954 6.384h.917v-6.384h-.917v6.384Zm-4.364-2.827h1.104c.965 0 1.414.412 1.414.992 0 .478-.29 1.011-1.367 1.011h-1.151V26.67Zm0-2.733h.842c.842 0 1.114.412 1.114.89 0 .682-.44 1.02-1.348 1.02h-.608v-1.91Zm-.918 5.56h2.191c1.6 0 2.19-.918 2.19-1.703 0-.861-.58-1.489-1.535-1.667v-.019c.665-.27.973-.702.973-1.366 0-.805-.589-1.629-1.965-1.629h-1.853v6.384Zm-7.041-3.192c0-1.404 1.057-2.434 2.48-2.434 1.432 0 2.49 1.03 2.49 2.434 0 1.395-1.058 2.434-2.49 2.434-1.423 0-2.48-1.04-2.48-2.434Zm-.946 0c0 1.732 1.32 3.276 3.407 3.276 2.163 0 3.454-1.554 3.454-3.276 0-1.778-1.329-3.276-3.435-3.276-2.068 0-3.426 1.507-3.426 3.276Zm-1.05.047h-2.144v.824h1.226v1.31c-.44.14-.89.253-1.385.253-1.517 0-2.584-1.002-2.584-2.424 0-1.386 1.077-2.444 2.462-2.444.768 0 1.545.216 2.294.628v-.927c-1.002-.421-1.526-.543-2.275-.543-1.947 0-3.426 1.432-3.426 3.314 0 1.872 1.442 3.238 3.398 3.238.889 0 1.582-.15 2.433-.524v-2.705Zm153.294 15.465h-.867v6.03h3.59v-.778h-2.723v-5.252Zm-4.554 1.29.972 2.185h-1.874l.902-2.184Zm.318-1.326h-.61l-2.591 6.066h.884l.761-1.777h2.564l.805 1.777h.884l-2.697-6.066Zm-4.757 6.066h.866v-6.03h-.866v6.03Zm-1.15-5.615c-.822-.345-1.45-.495-2.069-.495-1.919 0-3.307 1.344-3.307 3.183 0 1.265.99 3.007 3.254 3.007.946 0 1.591-.221 2.184-.53v-.947c-.681.442-1.424.681-2.105.681-1.45 0-2.44-.937-2.44-2.29 0-1.327 1.025-2.308 2.405-2.308.699 0 1.335.194 2.078.628v-.929Zm-11.805 2.6c0-1.327.999-2.299 2.343-2.299 1.353 0 2.352.972 2.352 2.299 0 1.318-.999 2.3-2.352 2.3-1.344 0-2.343-.982-2.343-2.3Zm-.893 0c0 1.636 1.247 3.095 3.218 3.095 2.043 0 3.264-1.468 3.264-3.095 0-1.68-1.256-3.095-3.246-3.095-1.954 0-3.236 1.424-3.236 3.095Zm-.937-2.67a2.416 2.416 0 0 0-1.345-.425c-1.105 0-1.83.628-1.83 1.61 0 1.653 2.609 1.795 2.609 3.041 0 .336-.31.76-.982.76-.592 0-1.15-.309-1.592-.875v1.097c.505.38 1.035.557 1.689.557.973 0 1.689-.69 1.689-1.636 0-1.919-2.608-1.901-2.608-3.06 0-.424.398-.716.955-.716.406 0 .902.142 1.415.628v-.981Zm-9.038.946.973 2.184h-1.875l.902-2.184Zm.318-1.327h-.61l-2.591 6.066h.885l.76-1.777h2.565l.804 1.777h.885l-2.698-6.066Zm-4.757 6.066h.867v-6.03h-.867v6.03Zm.54-7.728-.593 1.3h.486l.991-1.3h-.884Zm-1.866 1.698h-.805l-2.007 2.476-1.999-2.476h-.813v6.03h.866v-4.695h.018l1.857 2.334h.142l1.857-2.334h.017v4.695h.867v-6.03Zm-12.274 3.015c0-1.327.999-2.299 2.343-2.299 1.353 0 2.352.972 2.352 2.299 0 1.318-.999 2.3-2.352 2.3-1.344 0-2.343-.982-2.343-2.3Zm-.893 0c0 1.636 1.246 3.095 3.219 3.095 2.042 0 3.262-1.468 3.262-3.095 0-1.68-1.255-3.095-3.245-3.095-1.954 0-3.236 1.424-3.236 3.095Zm-1.079-3.015h-.814v4.669l-4.085-4.67h-.69v6.031h.814v-4.642l4.032 4.642h.743v-6.03Zm-12.247 3.015c0-1.327.999-2.299 2.343-2.299 1.353 0 2.352.972 2.352 2.299 0 1.318-.999 2.3-2.352 2.3-1.344 0-2.343-.982-2.343-2.3Zm-.893 0c0 1.636 1.247 3.095 3.218 3.095 2.043 0 3.264-1.468 3.264-3.095 0-1.68-1.256-3.095-3.246-3.095-1.954 0-3.236 1.424-3.236 3.095Zm-.876-2.6c-.822-.345-1.45-.495-2.069-.495-1.919 0-3.307 1.344-3.307 3.183 0 1.265.99 3.007 3.254 3.007.946 0 1.592-.221 2.184-.53v-.947c-.681.442-1.424.681-2.104.681-1.451 0-2.441-.937-2.441-2.29 0-1.327 1.026-2.308 2.405-2.308.699 0 1.336.194 2.078.628v-.929Zm-6.154-.415h-3.423v6.03h3.502v-.778h-2.635v-1.874h2.467v-.779h-2.467v-1.821h2.556v-.778Zm-9.259 2.078-1.618-2.078h-1.043l2.237 2.838v3.192h.867v-3.183l2.237-2.847h-1.044l-1.636 2.078Zm41.013-8.268c0-1.326 1-2.3 2.344-2.3 1.353 0 2.352.974 2.352 2.3 0 1.318-.999 2.3-2.352 2.3-1.344 0-2.344-.982-2.344-2.3Zm-.893 0c0 1.636 1.247 3.095 3.219 3.095 2.043 0 3.263-1.468 3.263-3.095 0-1.68-1.256-3.095-3.245-3.095-1.955 0-3.237 1.424-3.237 3.095Zm-1.088-3.015h-.866v5.845c0 .937-.08 1.397-.999 1.397h-.222l.16.805c.088.008.159.017.265.017 1.212 0 1.662-.84 1.662-1.963v-6.101Zm-4.571 1.29.972 2.185h-1.874l.902-2.184Zm.318-1.326h-.61l-2.591 6.067h.884l.761-1.778h2.564l.805 1.778h.884l-2.697-6.067Zm-6.844 3.396h1.043c.911 0 1.336.389 1.336.937 0 .451-.275.955-1.291.955h-1.088v-1.892Zm0-2.582h.796c.796 0 1.052.389 1.052.84 0 .646-.415.964-1.273.964h-.575V33.39Zm-.867 5.253h2.07c1.512 0 2.069-.867 2.069-1.61 0-.814-.548-1.406-1.451-1.574v-.018c.628-.256.92-.663.92-1.29 0-.761-.557-1.54-1.857-1.54h-1.751v6.032Zm-3.696-4.74.973 2.184h-1.875l.902-2.184Zm.319-1.327h-.611l-2.591 6.067h.885l.76-1.778h2.565l.804 1.778h.885l-2.697-6.067Zm-7.013.779h.557c.84 0 1.176.344 1.185.91.009.504-.256.982-1.185.982h-.557v-1.892Zm-.866-.743v6.03h.866v-2.617h.363c.442 0 .805.141 1.6 1.38l.796 1.238h1.035c-.416-.575-.566-.779-.823-1.194-.459-.752-.795-1.31-1.344-1.672.646-.256 1.009-.778 1.009-1.476 0-1.044-.761-1.69-1.981-1.69h-1.521Zm-.849 0h-5.041v.778h2.087v5.253h.867V33.39h2.087v-.778Zm-6.915 0h-3.423v6.03h3.502v-.778h-2.635V35.99h2.467v-.779h-2.467V33.39h2.556v-.778Zm-9.197.778h1.335c1.689 0 2.459 1.026 2.459 2.237 0 .743-.451 2.237-2.414 2.237h-1.38V33.39Zm-.866 5.253h2.352c1.989 0 3.201-1.468 3.201-3.016 0-1.424-.982-3.015-3.21-3.015h-2.343v6.03Zm40.4-12.519c0-1.326.999-2.3 2.343-2.3 1.353 0 2.352.973 2.352 2.3 0 1.318-.999 2.3-2.352 2.3-1.344 0-2.343-.982-2.343-2.3Zm-.894 0c0 1.636 1.247 3.095 3.219 3.095 2.043 0 3.263-1.468 3.263-3.095 0-1.68-1.255-3.095-3.245-3.095-1.954 0-3.237 1.424-3.237 3.095Zm-1.954 3.016h.867v-6.031h-.867v6.03Zm-4.483-5.289h.557c.84 0 1.176.345 1.185.911.009.504-.257.982-1.185.982h-.557V23.85Zm-.867-.742v6.03h.867v-2.617h.362c.442 0 .805.142 1.601 1.38l.796 1.238h1.034c-.415-.575-.566-.779-.822-1.194-.46-.752-.796-1.31-1.344-1.672.645-.256 1.008-.778 1.008-1.477 0-1.043-.761-1.688-1.981-1.688h-1.521Zm-1.035 0h-3.422v6.03h3.502v-.778h-2.635v-1.874h2.467v-.779h-2.467v-1.821h2.555v-.778Zm-4.253 0h-5.04v.778h2.087v5.253h.866v-5.253h2.087v-.778Zm-5.73.345a2.41 2.41 0 0 0-1.344-.425c-1.105 0-1.83.628-1.83 1.61 0 1.653 2.608 1.795 2.608 3.041 0 .336-.309.76-.981.76-.593 0-1.15-.309-1.592-.875v1.097a2.66 2.66 0 0 0 1.689.557c.973 0 1.689-.69 1.689-1.636 0-1.919-2.609-1.901-2.609-3.06 0-.424.398-.716.955-.716.407 0 .902.142 1.415.628v-.981Zm-5.084 5.686h.866v-6.031h-.866v6.03Zm-1.353-6.031h-.814v4.669l-4.085-4.67h-.69v6.032h.813v-4.643l4.033 4.643h.743v-6.031Zm-7.8 6.03h.867v-6.03h-.867v6.03Zm-1.326-6.03h-.805l-2.007 2.476-1.999-2.476h-.813v6.03h.866v-4.695h.018l1.857 2.334h.142l1.857-2.334h.017v4.696h.867v-6.031ZM120.546 62.25h1.55v-62h-1.55v62Z" clip-rule="evenodd"/></g></svg>
