<svg xmlns="http://www.w3.org/2000/svg" xmlns:xlink="http://www.w3.org/1999/xlink" width="165" height="43"><defs><path id="a" d="M0 0h29v43H0z"/><path id="c" d="M0 0h113v25H0z"/></defs><g fill="none" fill-rule="evenodd"><g><mask id="b" fill="#fff"><use xlink:href="#a"/></mask><path fill="#655DC6" d="m28.85 42.136-6.83-6.78a.502.502 0 0 0-.4-.14.504.504 0 0 0-.398.14L14.5 42.028l-6.722-6.672a.504.504 0 0 0-.4-.14.503.503 0 0 0-.398.14l-6.83 6.78c-.2.197-.2.518 0 .715.199.199.522.199.72 0l6.509-6.46 6.508 6.46a.505.505 0 0 0 .613.072.505.505 0 0 0 .612-.072l6.509-6.46 6.508 6.46a.512.512 0 0 0 .721 0c.2-.197.2-.518 0-.715ZM14.79 10.362c.28 0 .51-.227.51-.506V4.62L19.084.864c.199-.197.199-.518 0-.716a.513.513 0 0 0-.722 0L14.43 4.053a.505.505 0 0 0-.15.358v5.445c0 .28.228.506.51.506ZM7.251 4.621v5.235c0 .28.229.506.51.506.282 0 .511-.227.511-.506V4.41a.504.504 0 0 0-.15-.358L4.19.148a.513.513 0 0 0-.721 0c-.2.198-.2.519 0 .716l3.784 3.757ZM6.167 17.048c0 2.902 2.37 5.255 5.295 5.255 2.924 0 5.294-2.353 5.294-5.255 0-2.903-2.37-5.256-5.294-5.256-2.925 0-5.295 2.353-5.295 5.256Zm10.75 10.51c0 2.902 2.37 5.255 5.295 5.255 2.924 0 5.295-2.353 5.295-5.255 0-2.903-2.37-5.255-5.295-5.255-2.924 0-5.295 2.352-5.295 5.255Zm-10.75-5.255H16.756v10.51H6.166v-10.51Z" mask="url(#b)"/></g><g transform="translate(52 13)"><mask id="d" fill="#fff"><use xlink:href="#c"/></mask><path fill="#FFF" d="m112.1 2.086-.58-1.688-.587 1.688h1.168Zm.136.402h-1.438l-.313.902h-.452L111.23 0h.578L113 3.39h-.452l-.312-.902ZM110.12.398h-1.15V3.39h-.437V.398h-1.149V0h2.736v.398Zm-3.169 2.594v.398h-2.168V0h2.14v.398h-1.707v1.05h1.47v.398h-1.47v1.146h1.735Zm-3.394-.561c0-.398-.192-.61-.61-.61h-1.02v1.214h1.029c.413 0 .6-.206.6-.604Zm-1.63-2.076v1.117h.918c.438 0 .577-.25.577-.575 0-.322-.163-.542-.519-.542h-.976Zm2.048 2.124c0 .59-.35.91-.995.91h-1.472V0h1.443c.591 0 .89.36.89.844 0 .33-.097.614-.448.762.433.134.582.427.582.873Zm-5.672 11.017c0-3.119-1.22-4.601-3.55-4.601-2.352 0-3.572 1.482-3.572 4.601 0 3.142 1.22 4.624 3.572 4.624 2.33 0 3.55-1.482 3.55-4.624Zm-9.14 0c0-4.247 2.018-6.459 5.59-6.459 3.55 0 5.568 2.212 5.568 6.46 0 4.247-2.018 6.482-5.568 6.482-3.572 0-5.59-2.235-5.59-6.483Zm-5.414.82V12.7c0-2.5-1.264-3.805-3.371-3.805-2.219 0-3.462 1.482-3.462 4.624 0 3.119 1.22 4.601 3.44 4.601 2.107 0 3.393-1.305 3.393-3.805Zm1.997-7.08v12.786c0 3.43-1.997 4.978-5.169 4.978-1.753 0-3.483-.575-4.725-1.792l1.153-1.371c.999.95 2.152 1.393 3.483 1.393 2.108 0 3.417-.796 3.417-3.208v-2.079c-.8 1.394-2.152 2.036-3.86 2.036-3.129 0-5.147-2.235-5.147-6.46 0-4.27 2.041-6.482 5.169-6.482 1.597 0 2.884.575 3.682 1.77v-1.57h1.997Zm-12.18 10.995c-.91 1.106-2.085 1.748-3.749 1.748-3.062 0-4.526-1.726-4.526-4.602v-6.35h-2.24v-1.79h2.24V4.138h1.997v3.097h5.103v1.792h-5.103v6.349c0 1.792.887 2.81 2.573 2.81.977 0 1.687-.332 2.241-1.062l1.464 1.106ZM56.95 3.52c0-.908.51-1.593 1.53-1.593 1.021 0 1.554.685 1.554 1.593 0 .906-.533 1.592-1.554 1.592-1.02 0-1.53-.686-1.53-1.592Zm-2.374 14.467h3.04v-8.96h-3.04v-1.79h5.036v10.75h2.906v1.792h-7.942v-1.792Zm-2.996-6.304v8.096h-1.996V11.66c0-1.791-1.065-2.765-2.374-2.765-1.309 0-2.418.996-2.418 2.92v7.964h-1.997V11.66c0-1.791-1.042-2.765-2.351-2.765-1.354 0-2.44.996-2.44 2.92v7.964h-1.997V7.236h1.841v1.438c.71-1.084 1.842-1.637 3.172-1.637 1.554 0 2.73.752 3.328 2.19.666-1.46 1.93-2.19 3.461-2.19 2.263 0 3.771 1.593 3.771 4.646ZM33.522 8.32l-1.265 1.46c-.532-.575-1.264-.885-2.107-.885-1.597 0-2.928 1.04-2.928 3.296v7.588h-1.997V7.236h1.841v1.615c.754-1.217 1.997-1.814 3.505-1.814 1.243 0 2.24.509 2.951 1.283Zm-13.71 5.176c0-3.119-1.221-4.601-3.55-4.601-2.352 0-3.572 1.482-3.572 4.601 0 3.142 1.22 4.624 3.572 4.624 2.329 0 3.55-1.482 3.55-4.624Zm-9.14 0c0-4.247 2.018-6.459 5.59-6.459 3.55 0 5.568 2.212 5.568 6.46 0 4.247-2.018 6.482-5.568 6.482-3.572 0-5.59-2.235-5.59-6.483ZM4.06 7.236h5.102v1.792H4.06v8.96h4.348v1.791H0v-1.792h2.063v-8.96H.044v-1.79h2.019V6.24c0-2.721 1.575-4.513 4.526-4.513 1.664 0 2.84.707 3.749 1.747L8.874 4.581C8.319 3.895 7.632 3.52 6.655 3.52c-1.752 0-2.595 1.084-2.595 2.72v.996Z" mask="url(#d)"/></g></g></svg>