<svg xmlns="http://www.w3.org/2000/svg" width="295" height="41" fill="none"><mask id="a" width="295" height="41" x="0" y="0" maskUnits="userSpaceOnUse" style="mask-type:luminance"><path fill="#fff" fill-rule="evenodd" d="M.654 0h294.182v40.502H.654V0Z" clip-rule="evenodd"/></mask><g mask="url(#a)"><path fill="#ADB1B7" fill-rule="evenodd" d="M187.795 36.771c-.541.05-1.009-.078-1.345-.487-.21-.244-.3-.433-.379-.764a.57.57 0 0 0 .3-.196l1.424 1.447Zm-2.229-1.626a.405.405 0 0 1 .002-.574.407.407 0 1 1-.002.574Zm-.183 1.548c-.055-.147-.132-.385-.345-.62.287-.243.346-.374.442-.611l.007.003c.09.054.189.085.291.093l.012-.002-.407 1.137Zm-4.89.062c-.448.103-.81.098-1.093.11l.949-.294c2.058-.772 2.582-1.966 3.972-1.993.325.003.592.088.833.223l.002.037a.684.684 0 0 0 .025.266v.014c-.959.476-3.154 1.286-4.688 1.637Zm4.049-3.209.891.744.004.007a.707.707 0 0 0-.191.214l-.005.013c-.455-.22-.759-.229-.759-.229.115-.492.06-.749.06-.749Zm2.391-3.709c.956-2.113.731-2.021.942-2.899-.028.423-.055.956-.115 1.342-.416 2.303-1.014 4.009-1.734 5.891 0 0-.197-.017-.296.002-.175-.201-.229-.478-.229-.478-.335-1.388.706-2.253 1.432-3.858Zm.788 4.517c-.202.084-1.155.435-1.155.435l-.013.014a.68.68 0 0 0-.061-.244l-.005-.018c.368-.219.599-.53.604-.578.032.042.345.334.63.391Zm.286-.104c-.271-.133-.5-.234-.736-.438.52-.785.65-1.323.735-2.269l-.037-5.347c-.343 1.555-1.173 3.594-1.89 4.66-.21.312-.302.509-.431.717-.075.12-.496.815-.485 1.665-.294.06-.564.049-.906.023.043.371.065.422-.032 1.029-1.297.101-1.674.878-3.211 1.709-.75.406-1.238.591-2.361 1.001 2.612-.031 4.53.34 6.171-.764.187.248.326.487.449.778.226-.178.669-.396 1.038-.491.422.416.988.579 1.713.514.103-.583-.042-1.3-.5-1.695.09-.384.272-.778.483-1.092Zm-17.988 2.615c-.282-.012-.645-.007-1.093-.11-1.534-.351-3.729-1.161-4.688-1.637l.001-.014a.703.703 0 0 0 .024-.266l.002-.037c.241-.135.508-.22.833-.223 1.39.027 1.914 1.221 3.972 1.993l.949.294Zm-5.983-.172-.407-1.137.012.002a.668.668 0 0 0 .291-.093l.007-.003c.096.237.155.368.442.611-.213.235-.29.473-.345.62Zm-.757-1.546a.405.405 0 1 1 .572-.576.405.405 0 1 1-.572.576Zm-.31 1.137c-.336.409-.804.537-1.345.487l1.425-1.447a.562.562 0 0 0 .3.196c-.08.331-.17.52-.38.764Zm-1.271-1.93c.286-.057.598-.349.63-.391.005.048.236.359.603.578l-.005.018a.7.7 0 0 0-.06.244l-.013-.014s-.953-.351-1.155-.435Zm-.039-6.074c-.06-.386-.087-.919-.115-1.342.212.878-.013.786.942 2.899.726 1.605 1.767 2.47 1.432 3.858 0 0-.054.277-.229.478-.099-.019-.296-.002-.296-.002-.72-1.882-1.318-3.588-1.734-5.891Zm2.326 6.01.891-.744s-.055.257.06.749c0 0-.304.009-.758.229l-.006-.013a.707.707 0 0 0-.19-.214l.003-.007Zm1.208 0c-.096-.607-.074-.658-.032-1.029-.341.026-.611.037-.905-.023.011-.85-.411-1.545-.485-1.665-.13-.208-.222-.405-.431-.717-.717-1.066-1.547-3.105-1.891-4.66l-.036 5.347c.085.946.214 1.484.735 2.269-.236.204-.465.305-.736.438.211.314.393.708.483 1.092-.458.395-.603 1.112-.501 1.695.725.065 1.291-.098 1.714-.514.368.095.811.313 1.038.491.123-.291.262-.53.448-.778 1.642 1.104 3.56.733 6.171.764-1.123-.41-1.61-.595-2.361-1.001-1.536-.831-1.914-1.608-3.211-1.709Zm-3.569-27.792c.541-.05 1.009.078 1.345.487.21.244.3.433.38.764a.562.562 0 0 0-.3.196l-1.425-1.447Zm2.229 1.627a.406.406 0 1 1-.576.573.406.406 0 0 1 .576-.573Zm.183-1.548c.055.147.132.385.345.62-.287.243-.346.374-.442.611l-.007-.003a.682.682 0 0 0-.291-.093l-.012.002.407-1.137Zm4.89-.062c.448-.103.811-.098 1.093-.11l-.949.294c-2.058.772-2.582 1.966-3.972 1.994a1.697 1.697 0 0 1-.833-.224l-.002-.037a.71.71 0 0 0-.024-.267l-.001-.013c.959-.476 3.154-1.286 4.688-1.637Zm-4.05 3.208-.891-.744-.003-.007a.692.692 0 0 0 .19-.214l.006-.013c.454.22.758.229.758.229-.115.492-.06.749-.06.749Zm-2.39 3.71c-.955 2.113-.73 2.021-.942 2.899.028-.423.055-.956.115-1.342.416-2.303 1.014-4.008 1.734-5.891 0 0 .197.017.296-.003.175.202.229.479.229.479.335 1.388-.706 2.252-1.432 3.858Zm-.788-4.518c.202-.083 1.155-.434 1.155-.434l.013-.014a.694.694 0 0 0 .06.244l.005.018c-.367.219-.598.531-.603.579-.032-.043-.344-.334-.63-.393Zm-.286.104c.271.133.5.234.736.438-.52.786-.65 1.324-.735 2.269l.037 5.347c.343-1.555 1.173-3.594 1.89-4.66.21-.312.302-.509.431-.717.075-.12.496-.815.485-1.665.294-.059.564-.049.905-.023-.042-.371-.064-.422.032-1.029 1.298-.101 1.675-.878 3.211-1.708.751-.407 1.239-.592 2.362-1.002-2.612.031-4.53-.34-6.171.764a3.51 3.51 0 0 1-.449-.778c-.226.178-.669.397-1.038.492-.422-.417-.989-.58-1.714-.515-.102.584.043 1.301.501 1.695-.09.385-.272.778-.483 1.092ZM179.4 6.405c.283.012.645.007 1.093.11 1.534.351 3.729 1.161 4.688 1.637v.013a.69.69 0 0 0-.025.267l-.002.037c-.241.135-.508.22-.833.224-1.39-.028-1.914-1.222-3.972-1.994l-.949-.294Zm5.983.172.407 1.137-.012-.002a.677.677 0 0 0-.291.093l-.007.003c-.096-.237-.155-.368-.442-.611.213-.235.29-.473.345-.62Zm.758 1.546a.407.407 0 1 1-.575.576.407.407 0 0 1 .575-.576Zm.309-1.138c.336-.409.804-.537 1.345-.487l-1.424 1.447a.57.57 0 0 0-.3-.196c.079-.331.169-.52.379-.764Zm1.271 1.93c-.285.059-.598.35-.63.393-.005-.048-.236-.36-.604-.579l.005-.018a.675.675 0 0 0 .061-.244l.013.014s.953.351 1.155.434Zm.039 6.075c.06.386.087.919.115 1.342-.211-.878.014-.786-.942-2.899-.726-1.606-1.767-2.47-1.432-3.858 0 0 .054-.277.229-.479.099.02.296.003.296.003.72 1.883 1.318 3.588 1.734 5.891Zm-3.218-5.267s.055-.257-.06-.749c0 0 .304-.009.759-.229l.005.013a.707.707 0 0 0 .191.214l-.004.007-.891.744Zm-.317-.744c.097.607.074.658.032 1.029.342-.026.611-.036.905.023-.01.85.411 1.545.485 1.665.13.208.222.405.432.717.716 1.066 1.547 3.105 1.89 4.66l.037-5.347c-.086-.946-.215-1.483-.735-2.269.236-.204.464-.305.735-.438a3.412 3.412 0 0 1-.482-1.092c.458-.394.602-1.111.5-1.695-.725-.065-1.291.098-1.713.515-.369-.095-.812-.314-1.039-.492-.122.291-.261.53-.448.778-1.642-1.104-3.559-.733-6.171-.764 1.123.41 1.61.595 2.361 1.002 1.537.83 1.914 1.607 3.211 1.708Zm-3.137 23.637a10.648 10.648 0 0 1-2.353 1.487V9.189c.838.384 1.626.886 2.353 1.487v21.94Zm0 1.088c-.735.542-1.523.992-2.353 1.338v-.518a10.946 10.946 0 0 0 2.353-1.415v.595Zm-2.354-25.453c.83.345 1.618.796 2.353 1.337v.595a10.918 10.918 0 0 0-2.353-1.414v-.518Zm-2.818-.257a10.01 10.01 0 0 0-2.352 0v-.482a10.318 10.318 0 0 1 2.352.001v.481Zm0 27.786a10.243 10.243 0 0 1-2.352.001v-.482a9.8 9.8 0 0 0 2.352-.001v.482Zm-2.353-27.4a9.468 9.468 0 0 1 2.352.001v26.531a9.393 9.393 0 0 1-2.352.002V8.38Zm-2.818 25.728a10.676 10.676 0 0 1-2.353-1.485V10.67a10.635 10.635 0 0 1 2.353-1.484v24.922Zm0 .938a11.31 11.31 0 0 1-2.353-1.335v-.595a10.974 10.974 0 0 0 2.353 1.412v.518Zm-2.353-25.465c.735-.54 1.523-.989 2.353-1.334v.518c-.834.364-1.622.84-2.353 1.412v-.596Zm-2.818 4.446v15.239c-1.26-2.16-2-4.786-2-7.62 0-2.833.74-5.459 2-7.619Zm0-.738c-1.499 2.315-2.39 5.211-2.39 8.357 0 3.147.891 6.044 2.39 8.359v.836c-1.784-2.477-2.861-5.687-2.861-9.195 0-3.506 1.077-6.716 2.861-9.193v.836Zm18.332 16.703c1.494-2.313 2.382-5.206 2.382-8.345 0-3.14-.888-6.033-2.382-8.346v-.837c1.779 2.476 2.852 5.681 2.852 9.183 0 3.501-1.073 6.707-2.852 9.182v-.837Zm0-15.951c1.255 2.158 1.992 4.779 1.992 7.606 0 2.826-.737 5.447-1.992 7.605V14.041Zm3.952 7.605c0-8.448-5.875-15.298-13.122-15.298s-13.122 6.85-13.122 15.298c0 8.449 5.875 15.298 13.122 15.298s13.122-6.849 13.122-15.298Zm104.259 12.301c0 1.052-1.02 1.699-2.023 1.699-.437 0-1.052-.242-1.052-1.035 0-.939.696-1.149 1.537-1.295.939-.146 1.311-.292 1.538-.469v1.1Zm2.217 1.408v-4.661c0-2.12-2.217-2.493-3.431-2.493-1.764 0-3.593.373-3.852 3.011h2.185c.065-.502.259-1.198 1.392-1.198.582 0 1.489.049 1.489 1.004 0 .485-.437.631-.793.679l-2.039.308c-1.441.21-2.509 1.068-2.509 2.751 0 1.78 1.327 2.509 2.622 2.509 1.538 0 2.266-.712 2.783-1.246.049.485.081.614.211 1.019h2.444v-.34c-.275-.097-.502-.323-.502-1.343Zm-10.217-6.927h2.395l-2.961 8.465c-1.069 3.188-1.359 3.609-3.334 3.609-.308 0-.696-.016-1.02-.032v-1.813c.097.016.243.033.437.033.826 0 1.279-.114 1.489-1.295l-3.172-8.967h2.525l1.845 6.345h.032l1.764-6.345Zm-7.059 2.654v5.956h-2.266V31.81c0-.631-.032-1.699-1.473-1.699-1.003 0-1.779.68-1.779 1.991v4.936h-2.266v-8.61h2.168v1.263h.032c.308-.519.955-1.49 2.59-1.49 1.683 0 2.994.988 2.994 2.881Zm-12.171-2.654h2.266v8.61h-2.169v-1.214h-.032c-.518.923-1.424 1.441-2.622 1.441-1.7 0-2.929-.971-2.929-3.172v-5.665h2.266v5.341c0 1.327.776 1.586 1.472 1.586.744 0 1.748-.421 1.748-1.958v-4.969Zm-9.937 8.611h2.266v-11.62h-2.266v11.62Zm-4.305-3.092c0 1.052-1.02 1.699-2.023 1.699-.437 0-1.052-.242-1.052-1.035 0-.939.696-1.149 1.538-1.295.938-.146 1.31-.292 1.537-.469v1.1Zm2.217 1.408v-4.661c0-2.12-2.217-2.493-3.431-2.493-1.764 0-3.593.373-3.852 3.011h2.185c.065-.502.259-1.198 1.392-1.198.583 0 1.489.049 1.489 1.004 0 .485-.437.631-.793.679l-2.039.308c-1.441.21-2.509 1.068-2.509 2.751 0 1.78 1.327 2.509 2.622 2.509 1.537 0 2.266-.712 2.784-1.246.048.485.08.614.21 1.019h2.444v-.34c-.275-.097-.502-.323-.502-1.343Zm-9.824-6.927h1.408v1.619h-1.408v4.677c0 .501.016.696.939.696.145 0 .308-.016.469-.033v1.716c-.356.016-.711.033-1.068.033h-.291c-1.958 0-2.315-.745-2.315-1.862v-5.227h-1.165v-1.619h1.165v-2.33h2.266v2.33Zm-6.782 5.519c0 1.052-1.019 1.699-2.022 1.699-.437 0-1.052-.242-1.052-1.035 0-.939.696-1.149 1.538-1.295.938-.146 1.31-.292 1.536-.469v1.1Zm2.218 1.408v-4.661c0-2.12-2.218-2.493-3.431-2.493-1.764 0-3.593.373-3.852 3.011h2.185c.064-.502.259-1.198 1.392-1.198.582 0 1.488.049 1.488 1.004 0 .485-.436.631-.792.679l-2.039.308c-1.441.21-2.509 1.068-2.509 2.751 0 1.78 1.327 2.509 2.622 2.509 1.537 0 2.266-.712 2.783-1.246.049.485.081.614.211 1.019h2.444v-.34c-.275-.097-.502-.323-.502-1.343Zm-16.524-4.078c0 2.087.825 3.965 2.881 3.965 1.343 0 2.282-.761 2.573-2.185h2.427c-.485 2.525-2.136 4.289-5.049 4.289-3.091 0-5.308-2.088-5.308-6.102 0-4.062 2.346-6.134 5.34-6.134 3.48 0 4.888 2.396 5.017 4.111h-2.427c-.194-.696-.566-2.007-2.573-2.007-1.166 0-2.881.777-2.881 4.063Zm-13.983.599c.129-1.134.696-1.812 1.764-1.812.728 0 1.618.42 1.748 1.812h-3.512Zm1.796-3.674c-3.771 0-4.126 3.318-4.126 4.354 0 3.544 1.861 4.709 4.288 4.709 1.473 0 3.188-.679 3.787-2.752h-2.33c-.178.616-.826.94-1.457.94-1.829 0-1.958-1.457-2.022-2.104h5.907v-.405c0-3.933-2.347-4.742-4.047-4.742Zm-9.645 7.202c-1.457 0-1.862-1.586-1.862-2.606 0-1.359.486-2.638 1.926-2.638 1.554 0 1.942 1.392 1.942 2.767 0 1.279-.566 2.477-2.006 2.477Zm1.909-5.859h-.032c-.356-.551-1.036-1.344-2.493-1.344-1.893 0-3.576 1.457-3.576 4.435 0 2.363 1.068 4.629 3.625 4.629.939 0 1.942-.34 2.493-1.311h.032v1.084h2.217v-11.62h-2.266v4.127Zm73.833-15.683h-1.165v-1.619h1.165v-2.33h2.266v2.33h1.408v1.619h-1.408v4.677c0 .501.016.696.939.696.145 0 .307-.016.469-.033v1.716c-.356.016-.712.033-1.068.033h-.291c-1.959 0-2.315-.745-2.315-1.862v-5.227Zm-6.539 5.599c-.436 0-1.052-.242-1.052-1.035 0-.939.696-1.149 1.538-1.295.938-.146 1.311-.292 1.537-.469v1.1c0 1.052-1.019 1.699-2.023 1.699Zm2.088.373c.049.485.081.614.211 1.019h2.444v-.34c-.276-.097-.502-.323-.502-1.343v-4.661c0-2.12-2.218-2.493-3.431-2.493-1.764 0-3.593.373-3.852 3.011h2.185c.064-.502.259-1.198 1.392-1.198.582 0 1.488.049 1.488 1.004 0 .485-.436.631-.793.679l-2.039.308c-1.44.21-2.508 1.068-2.508 2.751 0 1.78 1.327 2.509 2.621 2.509 1.538 0 2.266-.712 2.784-1.246Zm-9.937-5.972h-1.164v-1.619h1.164v-2.33h2.267v2.33h1.408v1.619h-1.408v4.677c0 .501.016.696.938.696.146 0 .308-.016.47-.033v1.716c-.357.016-.714.033-1.068.033h-.292c-1.958 0-2.315-.745-2.315-1.862v-5.227Zm-4.71 6.991h2.266v-8.61h-2.266v8.61Zm0-9.629h2.266V9.12h-2.266v2.104Zm-4.499 9.629h2.266V9.233h-2.266v11.62Zm-6.328-1.392c-.437 0-1.052-.242-1.052-1.035 0-.939.696-1.149 1.538-1.295.938-.146 1.31-.292 1.537-.469v1.1c0 1.052-1.02 1.699-2.023 1.699Zm2.088.373c.048.485.081.614.21 1.019h2.444v-.34c-.275-.097-.502-.323-.502-1.343v-4.661c0-2.12-2.217-2.493-3.431-2.493-1.764 0-3.593.373-3.852 3.011h2.185c.065-.502.259-1.198 1.392-1.198.583 0 1.489.049 1.489 1.004 0 .485-.437.631-.793.679l-2.039.308c-1.441.21-2.509 1.068-2.509 2.751 0 1.78 1.327 2.509 2.622 2.509 1.538 0 2.266-.712 2.784-1.246Zm-8.869-3.464v4.483h-2.266v-8.61h2.169v1.489h.032c.469-.874.988-1.716 2.363-1.716.146 0 .291.017.437.033v2.298c-.194-.032-.437-.032-.648-.032-1.763 0-2.087 1.1-2.087 2.055Zm-7.833-2.492c.728 0 1.618.42 1.748 1.812h-3.512c.129-1.133.696-1.812 1.764-1.812Zm.194 7.201c1.473 0 3.189-.679 3.788-2.751h-2.331c-.178.615-.825.939-1.457.939-1.829 0-1.958-1.457-2.023-2.104h5.908v-.405c0-3.933-2.347-4.742-4.047-4.742-3.77 0-4.126 3.318-4.126 4.354 0 3.544 1.861 4.709 4.288 4.709Zm-11.232-.226h-2.266v-8.61h2.169v1.263h.032c.308-.519.955-1.49 2.59-1.49 1.683 0 2.994.988 2.994 2.881v5.956h-2.266v-5.228c0-.631-.032-1.699-1.473-1.699-1.003 0-1.78.68-1.78 1.991v4.936Zm-9.613-5.163c.129-1.133.696-1.812 1.764-1.812.728 0 1.618.42 1.748 1.812h-3.512Zm1.796-3.674c-3.77 0-4.126 3.318-4.126 4.354 0 3.544 1.86 4.709 4.288 4.709 1.473 0 3.189-.679 3.788-2.751h-2.331c-.178.615-.826.939-1.457.939-1.829 0-1.958-1.457-2.023-2.104h5.907v-.405c0-3.933-2.346-4.742-4.046-4.742Zm-5.551 8.837h-1.619l-.243-1.456c-.615.712-1.505 1.764-3.625 1.764-2.8 0-5.341-2.007-5.341-6.085 0-3.173 1.764-6.167 5.681-6.15 3.56 0 4.968 2.314 5.098 3.916h-2.428c0-.453-.825-1.91-2.541-1.91-1.732 0-3.334 1.198-3.334 4.176 0 3.172 1.732 3.998 3.383 3.998.534 0 2.314-.211 2.816-2.558h-2.703V14.59h4.856v6.263ZM33.384 34.433v3.46c-4.184-.299-6.772-2.43-6.921-5.771h4.92c.15 1.284.865 2.043 2 2.311Zm0-13.817v3.336c-.996.125-1.713.596-1.713 1.463 0 .704.7 1.035 1.713 1.275v4.32c-.196-.033-.394-.065-.596-.101-2.842-.48-5.876-1.246-5.876-5.079 0-3.272 2.879-5.041 6.472-5.214Zm8.476 11.89c0 3.429-2.911 5.265-6.921 5.412v-3.401c1.238-.125 2.002-.674 2.002-1.596 0-.949-.831-1.35-2.002-1.619v-4.311c.217.038.435.075.66.117 2.875.479 6.26 1.214 6.26 5.398Zm-6.922-8.491V20.63c4.007.267 6.173 2.209 6.409 5.201h-4.79c-.142-1.096-.733-1.618-1.62-1.816Zm-26.627-6.8C3.547 16.754.654 13.203.654 8.587.654 3.948 3.737.354 8.31 0v3.766C6.88 4.08 6.09 5.214 5.796 6.862H8.31v3.099H5.764c.258 1.778 1.108 3.003 2.547 3.414v3.84Zm9.207-7.255H9.864V6.862h2.384c-.163-1.659-1.074-2.795-2.384-3.1V.008c1.952.158 3.544.874 4.78 1.999 1.948 1.788 2.907 4.631 2.874 7.953Zm-5.365 1.949h5.078c-.352 1.469-1.31 2.874-2.747 3.864-1.262.881-2.775 1.4-4.62 1.48v-3.749c1.128-.117 1.89-.686 2.289-1.595ZM37.817.299 11.26 37.625H5.43L32.045.299h5.773Zm58.829 37.432h2.923V25.453h-2.923v12.278Zm-6.14-1.548c-.653 0-1.22-.292-1.22-1.014 0-.706.55-.98 1.203-1.135.637-.172 1.393-.224 1.806-.482.069 1.84-.396 2.631-1.79 2.631Zm4.609-4.643c0-2.528-2.046-2.992-4.161-2.992-1.015 0-2.047.172-2.838.619-.791.464-1.341 1.221-1.393 2.39h2.735c.137-.756.653-1.117 1.46-1.117.603 0 1.41.258 1.41.928 0 .551-.274.722-.773.826-2.03.413-5.193.189-5.193 3.095 0 1.84 1.34 2.7 3.044 2.7 1.066 0 2.184-.31 2.94-1.101.035.293.069.568.173.843h2.94c-.344-.705-.344-1.53-.344-2.287V31.54Zm-12.932 6.191h2.923v-8.925h-2.923v8.925Zm0-10.043h2.923v-2.235h-2.923v2.235Zm-4.076 6.535h2.837c-.258 2.39-2.115 3.766-4.488 3.766-2.683 0-4.678-1.84-4.678-4.574 0-2.838 1.806-4.867 4.678-4.867 2.218 0 4.196 1.169 4.402 3.525H78.02c-.018-.757-.688-1.289-1.428-1.289-1.633 0-1.891 1.392-1.891 2.631 0 1.152.499 2.338 1.737 2.338 1.014 0 1.53-.584 1.668-1.53Zm-12.125 1.53c-1.358 0-1.771-1.341-1.771-2.476s.413-2.493 1.77-2.493c1.36 0 1.79 1.358 1.79 2.493 0 1.135-.43 2.476-1.79 2.476Zm0-7.205c-2.77 0-4.694 2.046-4.694 4.729 0 2.683 1.925 4.712 4.694 4.712s4.712-2.029 4.712-4.712-1.943-4.729-4.712-4.729Zm-5.538 6.26c0 2.39-2.27 3.181-4.282 3.181-2.115 0-4.282-.705-4.367-3.198h2.785c0 .446.19.773.482.997.275.206.67.309 1.083.309.567 0 1.376-.24 1.376-.946 0-.688-.912-.825-1.427-.945-1.841-.465-4.145-.516-4.145-2.924 0-2.149 2.322-2.734 4.076-2.734 1.96 0 4.007.567 4.11 2.889h-2.7c0-.378-.138-.619-.378-.774-.241-.155-.568-.223-.93-.223-.48 0-1.254.051-1.254.67 0 .843 1.96.997 3.3 1.29 1.807.361 2.27 1.668 2.27 2.408Zm66.573-13.484c-.653 0-1.221-.292-1.221-1.014 0-.705.551-.98 1.204-1.135.636-.172 1.393-.224 1.806-.482.069 1.84-.396 2.631-1.789 2.631Zm4.609-4.643c0-2.528-2.046-2.992-4.162-2.992-1.014 0-2.046.172-2.837.619-.791.465-1.341 1.221-1.393 2.39h2.734c.138-.756.654-1.117 1.462-1.117.602 0 1.41.258 1.41.928 0 .551-.275.723-.774.826-2.029.413-5.193.189-5.193 3.095 0 1.84 1.341 2.7 3.044 2.7 1.066 0 2.184-.31 2.94-1.101.035.293.069.568.172.843h2.941c-.344-.705-.344-1.53-.344-2.287v-3.904Zm-12.76-3.852h2.923v-2.235h-2.923v2.235Zm0 10.043h2.923v-8.925h-2.923v8.925Zm-1.377-5.331v5.331h-2.923v-5.245c0-.963-.465-1.53-1.222-1.53-1.255 0-1.375.963-1.375 2.407v4.368h-2.924v-5.073c0-1.049-.309-1.702-1.1-1.702-1.049 0-1.496.601-1.496 2.425v4.35h-2.924v-8.925h2.838v1.221h.034c.533-.894 1.479-1.479 2.563-1.479 1.117 0 2.115.361 2.596 1.445.705-.946 1.582-1.445 2.786-1.445 2.837 0 3.147 2.15 3.147 3.852Zm-19.708 3.354c-1.36 0-1.772-1.342-1.772-2.477 0-1.135.413-2.493 1.772-2.493 1.358 0 1.788 1.358 1.788 2.493 0 1.135-.43 2.477-1.788 2.477Zm0-7.206c-2.77 0-4.695 2.046-4.695 4.729 0 2.683 1.926 4.712 4.695 4.712 2.768 0 4.712-2.029 4.712-4.712s-1.944-4.729-4.712-4.729Zm-11.677 4.316v4.867H83.18v-8.925h2.838v1.221h.034c.534-.912 1.737-1.479 2.804-1.479 2.975 0 3.215 2.167 3.215 3.457v5.726h-2.923v-4.316c0-1.221.137-2.459-1.462-2.459-1.1 0-1.582.928-1.582 1.908Zm-8.823 2.89c-1.36 0-1.771-1.342-1.771-2.477 0-1.135.412-2.493 1.77-2.493 1.36 0 1.789 1.358 1.789 2.493 0 1.135-.43 2.477-1.788 2.477Zm0-7.206c-2.77 0-4.694 2.046-4.694 4.729 0 2.683 1.925 4.712 4.694 4.712s4.712-2.029 4.712-4.712-1.943-4.729-4.712-4.729Zm-8.565 5.675h2.838c-.258 2.39-2.115 3.766-4.488 3.766-2.683 0-4.678-1.84-4.678-4.574 0-2.838 1.806-4.867 4.678-4.867 2.218 0 4.196 1.169 4.402 3.525H68.63c-.017-.756-.687-1.289-1.427-1.289-1.634 0-1.891 1.392-1.891 2.631 0 1.152.499 2.339 1.736 2.339 1.015 0 1.53-.585 1.668-1.531Zm-12.021-3.697c.98 0 1.686.825 1.737 1.823h-3.628c.172-1.084.86-1.823 1.89-1.823Zm.104 5.485c-1.238 0-1.943-.808-1.995-2.029h6.552c.137-3.026-1.462-5.434-4.661-5.434-2.63 0-4.815 1.96-4.815 4.695 0 2.992 1.978 4.746 4.884 4.746 1.995 0 3.904-.894 4.437-2.958h-2.734c-.276.654-.963.98-1.668.98Z" clip-rule="evenodd"/></g></svg>
