<svg xmlns="http://www.w3.org/2000/svg" width="123" height="29" fill="none"><mask id="a" width="123" height="29" x="0" y="0" maskUnits="userSpaceOnUse" style="mask-type:luminance"><path fill="#fff" fill-rule="evenodd" d="M.4.522H122.31v28H.4v-28Z" clip-rule="evenodd"/></mask><g mask="url(#a)"><path fill="#ADB1B7" fill-rule="evenodd" d="M15.77 4.05a2.467 2.467 0 1 1-4.933 0 2.467 2.467 0 0 1 4.934 0Zm101.391 13.724c-.765.788-1.716 1.183-2.852 1.183s-2.087-.395-2.852-1.183c-.765-.788-1.148-1.843-1.148-3.165s.383-2.377 1.148-3.165c.765-.789 1.716-1.183 2.852-1.183s2.087.394 2.852 1.183c.765.788 1.148 1.843 1.148 3.165s-.383 2.377-1.148 3.165Zm4.539-6.434a8.375 8.375 0 0 0-1.635-2.592 7.37 7.37 0 0 0-2.382-1.704 6.892 6.892 0 0 0-2.852-.608c-.673 0-1.258.086-1.757.26-.498.174-.933.354-1.304.54a6.65 6.65 0 0 0-1.113.764V.696h-4v21.913h2.956l.696-1.565a6.02 6.02 0 0 0 1.217.87c.394.231.871.434 1.426.609.557.173 1.183.26 1.879.26.996 0 1.948-.203 2.852-.609a7.362 7.362 0 0 0 2.382-1.704 8.35 8.35 0 0 0 1.635-2.592c.406-.996.609-2.086.609-3.27 0-1.181-.203-2.27-.609-3.268Zm-64.398 4.487a4.16 4.16 0 0 1-.835 1.269c-.347.36-.753.644-1.217.852-.464.21-.95.313-1.46.313a3.583 3.583 0 0 1-1.496-.313 3.885 3.885 0 0 1-2.035-2.121 4.137 4.137 0 0 1-.295-1.566c0-.556.098-1.078.295-1.565.197-.487.47-.91.817-1.27.349-.358.754-.643 1.218-.851a3.596 3.596 0 0 1 1.495-.314c.51 0 .997.105 1.461.314.464.208.87.493 1.217.852.348.359.627.782.835 1.269.21.487.314 1.009.314 1.565 0 .557-.104 1.079-.314 1.566Zm.487-7.653a7.713 7.713 0 0 0-1.217-.869 9.579 9.579 0 0 0-1.426-.592c-.557-.184-1.182-.277-1.878-.277-.998 0-1.942.197-2.835.59a7.175 7.175 0 0 0-2.33 1.635 7.742 7.742 0 0 0-1.566 2.47c-.382.951-.573 1.995-.573 3.13 0 1.137.19 2.18.573 3.13a7.743 7.743 0 0 0 1.566 2.47 7.177 7.177 0 0 0 2.33 1.636c.893.394 1.837.59 2.835.59.648 0 1.229-.087 1.739-.26.51-.175.95-.377 1.322-.609a5.938 5.938 0 0 0 1.113-.87v1.218c0 .973-.325 1.767-.975 2.383-.649.613-1.542.92-2.678.92-.603 0-1.101-.08-1.495-.243a4.693 4.693 0 0 1-.974-.522 2.716 2.716 0 0 1-.661-.799h-4a7.966 7.966 0 0 0 1.357 2.608c.532.673 1.257 1.276 2.174 1.809.915.533 2.115.8 3.6.8 2.434 0 4.318-.638 5.651-1.913 1.333-1.275 2-2.957 2-5.043V6.609h-2.957l-.695 1.565ZM82.658 22.61h4V.696h-4v21.913Zm-43.303-6.261c0 .974-.32 1.769-.956 2.383-.639.615-1.479.921-2.522.921-.604 0-1.102-.18-1.496-.538-.395-.36-.591-.76-.591-1.2 0-.348.07-.661.209-.94.139-.278.41-.515.817-.713.406-.196.968-.348 1.687-.452.718-.104 1.67-.157 2.852-.157v.696Zm2.226-8.139a5.958 5.958 0 0 0-1.982-1.304 6.545 6.545 0 0 0-2.505-.47c-.997 0-1.895.145-2.695.435-.8.29-1.49.678-2.07 1.165a5.538 5.538 0 0 0-1.374 1.705 6.16 6.16 0 0 0-.643 2.087h4c.07-.325.208-.615.417-.87.185-.209.435-.405.748-.591.313-.186.736-.279 1.27-.279.787 0 1.419.244 1.895.731.475.487.713 1.17.713 2.052-1.832 0-3.357.134-4.574.4-1.217.266-2.197.638-2.94 1.113-.742.476-1.268 1.043-1.581 1.704a5.01 5.01 0 0 0-.47 2.174c0 1.322.464 2.407 1.392 3.252.926.847 2.26 1.27 3.999 1.27.696 0 1.322-.087 1.878-.26a6.878 6.878 0 0 0 1.426-.61 7.66 7.66 0 0 0 1.218-.87l.695 1.566h2.957v-9.913c0-.904-.157-1.74-.47-2.504a5.96 5.96 0 0 0-1.304-1.983Zm-26.19 5.096c.556.823.835 1.895.835 3.217a4.95 4.95 0 0 1-.574 2.296c-.382.742-.922 1.408-1.618 2-.695.59-1.536 1.067-2.52 1.426-.987.36-2.083.539-3.288.539-1.23 0-2.325-.174-3.287-.522-.962-.348-1.78-.84-2.452-1.478a6.5 6.5 0 0 1-1.548-2.26c-.36-.87-.54-1.827-.54-2.87h4.175c0 .973.324 1.768.974 2.382.649.615 1.542.922 2.678.922 1.229 0 2.144-.26 2.748-.783.602-.522.904-1.13.904-1.826 0-.672-.278-1.194-.835-1.565-.556-.371-1.252-.701-2.087-.991a48.63 48.63 0 0 0-2.73-.853 11.695 11.695 0 0 1-2.73-1.147 6.675 6.675 0 0 1-2.088-1.896C.852 9.12.574 8.093.574 6.818c0-.835.18-1.635.54-2.4.358-.765.869-1.432 1.53-2 .66-.568 1.46-1.026 2.4-1.374.938-.348 2-.522 3.182-.522.383 0 .75.03 1.108.072A5.246 5.246 0 0 0 8.036 4.05c0 .105.01.207.015.31-.955.028-1.715.274-2.26.754-.58.51-.87 1.066-.87 1.67 0 .648.279 1.147.835 1.495.557.347 1.252.66 2.087.939.835.278 1.745.568 2.73.87.986.301 1.896.707 2.731 1.217a6.736 6.736 0 0 1 2.087 2Zm8.835-6.696h3.478v3.652h-3.479v6.609c0 .696.203 1.247.61 1.652.404.406.955.61 1.65.61.186 0 .337-.007.454-.018.115-.012.22-.03.312-.053a1.29 1.29 0 0 0 .279-.104v3.478a3.23 3.23 0 0 1-.557.174 4.831 4.831 0 0 1-1.356.174 5.766 5.766 0 0 1-2.175-.4 4.695 4.695 0 0 1-1.703-1.165 5.497 5.497 0 0 1-1.114-1.81c-.267-.695-.4-1.483-.4-2.365v-6.782H17.79V6.957h1.044c1.275 0 1.913-.638 1.913-1.913V2.783h3.479v3.826Zm44.172 6.783a4.078 4.078 0 0 1 1.27-2.226c.66-.603 1.513-.905 2.556-.905 1.043 0 1.895.302 2.556.905a4.087 4.087 0 0 1 1.27 2.226h-7.652Zm9.217-4.696a7.37 7.37 0 0 0-2.435-1.67 7.483 7.483 0 0 0-2.956-.59c-1.09 0-2.116.214-3.079.642a8.25 8.25 0 0 0-2.538 1.757 8.478 8.478 0 0 0-1.74 2.592 7.873 7.873 0 0 0-.643 3.182c0 1.136.214 2.197.644 3.183a8.457 8.457 0 0 0 1.739 2.59 8.212 8.212 0 0 0 2.538 1.757 7.47 7.47 0 0 0 3.079.644c.904 0 1.744-.151 2.522-.452a8.249 8.249 0 0 0 2.086-1.166 7.666 7.666 0 0 0 1.566-1.616 7.212 7.212 0 0 0 .956-1.809H75.18c-.186.231-.417.44-.695.625a4.002 4.002 0 0 1-.922.418c-.36.116-.806.174-1.34.174-1.042 0-1.866-.267-2.469-.8a3.726 3.726 0 0 1-1.182-1.983h11.13c.023-.162.046-.336.069-.522.024-.161.047-.33.07-.503.023-.174.035-.354.035-.54 0-1.205-.203-2.313-.609-3.322-.406-1.008-.956-1.872-1.652-2.59Zm21.565 7.652c0 .974-.32 1.769-.957 2.383-.639.615-1.479.921-2.521.921-.605 0-1.102-.18-1.496-.538-.395-.36-.592-.76-.592-1.2 0-.348.07-.661.21-.94.138-.278.41-.515.817-.713.405-.196.968-.348 1.686-.452.719-.104 1.67-.157 2.853-.157v.696Zm2.226-8.139a5.97 5.97 0 0 0-1.983-1.304c-.765-.314-1.6-.47-2.505-.47-.997 0-1.895.145-2.695.435-.8.29-1.49.678-2.07 1.165A5.527 5.527 0 0 0 90.78 9.74a6.142 6.142 0 0 0-.643 2.087h4c.07-.325.209-.615.417-.87a3.15 3.15 0 0 1 .749-.591c.312-.186.735-.279 1.269-.279.788 0 1.42.244 1.895.731.476.487.714 1.17.714 2.052-1.833 0-3.357.134-4.574.4-1.217.266-2.198.638-2.94 1.113-.742.476-1.269 1.043-1.582 1.704a5.01 5.01 0 0 0-.47 2.174c0 1.322.464 2.407 1.392 3.252.927.847 2.26 1.27 4 1.27.696 0 1.321-.087 1.878-.26a6.87 6.87 0 0 0 1.425-.61c.441-.255.847-.544 1.218-.87l.695 1.566h2.958v-9.913c0-.904-.157-1.74-.471-2.504a5.95 5.95 0 0 0-1.303-1.983Z" clip-rule="evenodd"/></g></svg>
