<svg xmlns="http://www.w3.org/2000/svg" viewBox="0 0 512 512"><path d="M0 0h512v512H0z" style="fill:#1d2229"/><path d="M253.84 142.2V88.99c0-1.31.53-2.57 1.46-3.5l38.44-38.16c1.94-1.93 5.11-1.93 7.05 0a4.92 4.92 0 0 1 0 7l-36.98 36.71v51.16c0 2.73-2.24 4.95-4.99 4.95s-4.98-2.22-4.98-4.95m-79.28 224.36h103.49V263.84H174.56zm105.06-51.36c0 28.36 23.17 51.36 51.74 51.36s51.75-22.99 51.75-51.36-23.17-51.36-51.75-51.36-51.74 22.99-51.74 51.36M174.56 212.49c0 28.36 23.17 51.36 51.75 51.36s51.74-22.99 51.74-51.36-23.17-51.36-51.74-51.36-51.75 22.99-51.75 51.36m221.68 245.18-66.75-66.26c-1.07-1.06-2.5-1.48-3.9-1.37-1.4-.11-2.83.31-3.9 1.37L256 456.61l-65.69-65.2c-1.07-1.06-2.5-1.48-3.9-1.37-1.4-.11-2.83.31-3.9 1.37l-66.75 66.26a4.907 4.907 0 0 0 0 6.99 4.997 4.997 0 0 0 7.05 0l63.6-63.13 63.61 63.13c1.63 1.63 4.08 1.8 5.99.7 1.91 1.1 4.35.93 5.99-.7l63.61-63.13 63.61 63.13c1.94 1.94 5.1 1.94 7.05 0a4.907 4.907 0 0 0 0-6.99ZM185.17 91.04v51.16c0 2.73 2.24 4.95 4.99 4.95s4.99-2.22 4.99-4.95V88.99c0-1.31-.53-2.57-1.47-3.5l-38.44-38.16c-1.94-1.93-5.11-1.93-7.05 0a4.92 4.92 0 0 0 0 7z" style="fill:#5c5ba5"/></svg>